G04 #@! TF.GenerationSoftware,KiCad,Pcbnew,5.0.0-fee4fd1~66~ubuntu16.04.1*
G04 #@! TF.CreationDate,2018-08-16T23:09:48+08:00*
G04 #@! TF.ProjectId,postcard,706F7374636172642E6B696361645F70,rev?*
G04 #@! TF.SameCoordinates,Original*
G04 #@! TF.FileFunction,Legend,Bot*
G04 #@! TF.FilePolarity,Positive*
%FSLAX46Y46*%
G04 Gerber Fmt 4.6, Leading zero omitted, Abs format (unit mm)*
G04 Created by KiCad (PCBNEW 5.0.0-fee4fd1~66~ubuntu16.04.1) date Thu Aug 16 23:09:48 2018*
%MOMM*%
%LPD*%
G01*
G04 APERTURE LIST*
%ADD10C,0.120000*%
%ADD11C,0.150000*%
%ADD12C,0.010000*%
G04 APERTURE END LIST*
D10*
G04 #@! TO.C,BT1*
X94680021Y-84328832D02*
G75*
G03X76952090Y-84325000I-8865021J-4881168D01*
G01*
X76952090Y-94095000D02*
G75*
G03X94677910Y-94095000I8862910J4885000D01*
G01*
X96285000Y-84325000D02*
X94677910Y-84325000D01*
X75345000Y-84325000D02*
X76952090Y-84325000D01*
X96285000Y-94095000D02*
X94677910Y-94095000D01*
X96285000Y-86210000D02*
X96285000Y-84325000D01*
X75345000Y-86210000D02*
X75345000Y-84325000D01*
X96285000Y-92210000D02*
X96285000Y-94095000D01*
X75345000Y-92210000D02*
X75345000Y-94095000D01*
X75345000Y-94095000D02*
X76952090Y-94095000D01*
G04 #@! TO.C,R1*
X57036252Y-83350000D02*
X56513748Y-83350000D01*
X57036252Y-81930000D02*
X56513748Y-81930000D01*
G04 #@! TO.C,R2*
X39863748Y-91563332D02*
X40386252Y-91563332D01*
X39863748Y-90143332D02*
X40386252Y-90143332D01*
G04 #@! TO.C,R3*
X39863748Y-93190000D02*
X40386252Y-93190000D01*
X39863748Y-94610000D02*
X40386252Y-94610000D01*
G04 #@! TO.C,R4*
X39863748Y-88516666D02*
X40386252Y-88516666D01*
X39863748Y-87096666D02*
X40386252Y-87096666D01*
G04 #@! TO.C,R5*
X39863748Y-84050000D02*
X40386252Y-84050000D01*
X39863748Y-85470000D02*
X40386252Y-85470000D01*
G04 #@! TO.C,SW1*
X61270000Y-90520000D02*
X61270000Y-88020000D01*
X67770000Y-90520000D02*
X67770000Y-88020000D01*
X61270000Y-92670000D02*
X61270000Y-92020000D01*
X67770000Y-92670000D02*
X61270000Y-92670000D01*
X67770000Y-92020000D02*
X67770000Y-92670000D01*
X61270000Y-85870000D02*
X61270000Y-86520000D01*
X67770000Y-85870000D02*
X61270000Y-85870000D01*
X67770000Y-86520000D02*
X67770000Y-85870000D01*
D11*
G04 #@! TO.C,U1*
X50610000Y-91760000D02*
X48860000Y-91760000D01*
X50610000Y-86455000D02*
X56110000Y-86455000D01*
X50610000Y-91965000D02*
X56110000Y-91965000D01*
X50610000Y-86455000D02*
X50610000Y-86755000D01*
X56110000Y-86455000D02*
X56110000Y-86755000D01*
X56110000Y-91965000D02*
X56110000Y-91665000D01*
X50610000Y-91965000D02*
X50610000Y-91760000D01*
D12*
G04 #@! TO.C,G\002A\002A\002A*
G36*
X20127608Y-83131702D02*
X20597277Y-83132029D01*
X21060862Y-83132544D01*
X21515198Y-83133245D01*
X21957124Y-83134135D01*
X22383476Y-83135213D01*
X22791091Y-83136478D01*
X23176806Y-83137932D01*
X23537457Y-83139574D01*
X23869883Y-83141405D01*
X24170919Y-83143424D01*
X24437402Y-83145632D01*
X24666170Y-83148029D01*
X24854060Y-83150615D01*
X24997908Y-83153390D01*
X25030112Y-83154208D01*
X25273095Y-83160535D01*
X25470249Y-83166118D01*
X25626532Y-83172726D01*
X25746903Y-83182127D01*
X25836321Y-83196091D01*
X25899745Y-83216386D01*
X25942134Y-83244780D01*
X25968447Y-83283042D01*
X25983642Y-83332942D01*
X25992679Y-83396247D01*
X26000517Y-83474726D01*
X26003357Y-83501326D01*
X26007695Y-83568012D01*
X26011143Y-83678067D01*
X26013742Y-83825520D01*
X26015529Y-84004399D01*
X26016545Y-84208733D01*
X26016828Y-84432549D01*
X26016417Y-84669877D01*
X26015352Y-84914745D01*
X26013672Y-85161181D01*
X26011415Y-85403214D01*
X26008621Y-85634871D01*
X26005329Y-85850181D01*
X26001578Y-86043174D01*
X25997407Y-86207876D01*
X25992855Y-86338316D01*
X25987961Y-86428523D01*
X25983943Y-86467050D01*
X25958961Y-86542081D01*
X25920200Y-86588168D01*
X25918410Y-86589173D01*
X25881038Y-86596662D01*
X25799426Y-86604890D01*
X25680169Y-86613449D01*
X25529864Y-86621935D01*
X25355109Y-86629943D01*
X25162501Y-86637067D01*
X25114008Y-86638611D01*
X25008755Y-86641022D01*
X24856753Y-86643274D01*
X24661162Y-86645365D01*
X24425141Y-86647297D01*
X24151850Y-86649070D01*
X23844451Y-86650684D01*
X23506101Y-86652138D01*
X23139962Y-86653434D01*
X22749193Y-86654571D01*
X22336954Y-86655551D01*
X21906405Y-86656372D01*
X21460706Y-86657035D01*
X21003017Y-86657541D01*
X20536497Y-86657890D01*
X20064307Y-86658081D01*
X19589607Y-86658116D01*
X19115556Y-86657994D01*
X18645315Y-86657715D01*
X18182043Y-86657281D01*
X17728900Y-86656690D01*
X17289046Y-86655944D01*
X16865641Y-86655043D01*
X16461846Y-86653986D01*
X16080819Y-86652774D01*
X15725720Y-86651408D01*
X15399711Y-86649886D01*
X15105950Y-86648211D01*
X14847598Y-86646382D01*
X14627814Y-86644398D01*
X14449758Y-86642262D01*
X14316591Y-86639971D01*
X14238590Y-86637812D01*
X14037167Y-86628660D01*
X13880923Y-86617539D01*
X13764191Y-86603181D01*
X13681303Y-86584319D01*
X13626593Y-86559686D01*
X13594394Y-86528015D01*
X13579533Y-86490434D01*
X13557543Y-86357417D01*
X13538728Y-86183004D01*
X13523102Y-85974107D01*
X13510679Y-85737635D01*
X13501472Y-85480497D01*
X13495496Y-85209605D01*
X13492765Y-84931867D01*
X13493291Y-84654194D01*
X13497090Y-84383496D01*
X13503471Y-84152187D01*
X15243443Y-84152187D01*
X15243443Y-84560347D01*
X15246978Y-84808921D01*
X15259219Y-85012006D01*
X15282621Y-85174577D01*
X15319638Y-85301610D01*
X15372725Y-85398081D01*
X15444336Y-85468966D01*
X15536926Y-85519240D01*
X15652950Y-85553880D01*
X15741661Y-85570301D01*
X15903875Y-85590335D01*
X16108126Y-85607447D01*
X16345680Y-85621519D01*
X16607800Y-85632430D01*
X16885751Y-85640062D01*
X17170796Y-85644296D01*
X17454201Y-85645012D01*
X17727229Y-85642091D01*
X17981144Y-85635414D01*
X18207212Y-85624863D01*
X18396695Y-85610317D01*
X18429076Y-85606957D01*
X18698032Y-85573589D01*
X18920279Y-85536785D01*
X19099918Y-85495176D01*
X19241048Y-85447393D01*
X19347770Y-85392068D01*
X19424183Y-85327832D01*
X19471602Y-85258973D01*
X19501528Y-85167696D01*
X19517869Y-85047134D01*
X19520459Y-84955522D01*
X20407665Y-84955522D01*
X20415995Y-85111110D01*
X20439786Y-85230169D01*
X20482797Y-85319548D01*
X20548784Y-85386095D01*
X20641506Y-85436659D01*
X20764719Y-85478089D01*
X20814182Y-85491300D01*
X20995649Y-85529841D01*
X21219415Y-85564582D01*
X21477039Y-85595048D01*
X21760079Y-85620765D01*
X22060092Y-85641255D01*
X22368637Y-85656045D01*
X22677271Y-85664659D01*
X22977552Y-85666621D01*
X23261037Y-85661457D01*
X23519286Y-85648691D01*
X23558831Y-85645825D01*
X23802386Y-85625403D01*
X24000917Y-85603994D01*
X24160251Y-85580139D01*
X24286214Y-85552381D01*
X24384631Y-85519261D01*
X24461328Y-85479323D01*
X24522131Y-85431109D01*
X24554079Y-85396804D01*
X24593326Y-85340064D01*
X24623651Y-85270089D01*
X24646043Y-85180244D01*
X24661493Y-85063891D01*
X24670990Y-84914396D01*
X24675523Y-84725120D01*
X24676276Y-84577177D01*
X24676276Y-84095196D01*
X20544920Y-84108208D01*
X20484116Y-84260760D01*
X20457403Y-84336134D01*
X20438494Y-84413954D01*
X20425523Y-84506884D01*
X20416622Y-84627585D01*
X20411038Y-84756556D01*
X20407665Y-84955522D01*
X19520459Y-84955522D01*
X19521841Y-84906691D01*
X19514657Y-84755770D01*
X19497532Y-84603776D01*
X19471679Y-84460114D01*
X19438314Y-84334187D01*
X19398651Y-84235399D01*
X19353904Y-84173156D01*
X19329502Y-84158507D01*
X19289401Y-84153476D01*
X19203580Y-84148720D01*
X19077171Y-84144276D01*
X18915303Y-84140183D01*
X18723109Y-84136480D01*
X18505718Y-84133204D01*
X18268261Y-84130393D01*
X18015870Y-84128087D01*
X17753674Y-84126323D01*
X17486805Y-84125140D01*
X17220394Y-84124576D01*
X16959571Y-84124669D01*
X16709467Y-84125458D01*
X16475213Y-84126980D01*
X16261940Y-84129275D01*
X16074778Y-84132380D01*
X16012562Y-84133756D01*
X15243443Y-84152187D01*
X13503471Y-84152187D01*
X13504175Y-84126682D01*
X13514560Y-83890663D01*
X13528259Y-83682347D01*
X13545286Y-83508646D01*
X13565654Y-83376469D01*
X13573197Y-83342800D01*
X13586345Y-83295100D01*
X13603091Y-83257821D01*
X13629513Y-83229339D01*
X13671691Y-83208028D01*
X13735706Y-83192266D01*
X13827638Y-83180428D01*
X13953566Y-83170889D01*
X14119569Y-83162025D01*
X14277277Y-83154694D01*
X14366437Y-83151856D01*
X14503285Y-83149202D01*
X14684657Y-83146734D01*
X14907391Y-83144451D01*
X15168322Y-83142353D01*
X15464289Y-83140441D01*
X15792128Y-83138715D01*
X16148676Y-83137175D01*
X16530770Y-83135821D01*
X16935247Y-83134653D01*
X17358944Y-83133671D01*
X17798697Y-83132876D01*
X18251344Y-83132267D01*
X18713722Y-83131846D01*
X19182667Y-83131611D01*
X19655017Y-83131563D01*
X20127608Y-83131702D01*
X20127608Y-83131702D01*
G37*
X20127608Y-83131702D02*
X20597277Y-83132029D01*
X21060862Y-83132544D01*
X21515198Y-83133245D01*
X21957124Y-83134135D01*
X22383476Y-83135213D01*
X22791091Y-83136478D01*
X23176806Y-83137932D01*
X23537457Y-83139574D01*
X23869883Y-83141405D01*
X24170919Y-83143424D01*
X24437402Y-83145632D01*
X24666170Y-83148029D01*
X24854060Y-83150615D01*
X24997908Y-83153390D01*
X25030112Y-83154208D01*
X25273095Y-83160535D01*
X25470249Y-83166118D01*
X25626532Y-83172726D01*
X25746903Y-83182127D01*
X25836321Y-83196091D01*
X25899745Y-83216386D01*
X25942134Y-83244780D01*
X25968447Y-83283042D01*
X25983642Y-83332942D01*
X25992679Y-83396247D01*
X26000517Y-83474726D01*
X26003357Y-83501326D01*
X26007695Y-83568012D01*
X26011143Y-83678067D01*
X26013742Y-83825520D01*
X26015529Y-84004399D01*
X26016545Y-84208733D01*
X26016828Y-84432549D01*
X26016417Y-84669877D01*
X26015352Y-84914745D01*
X26013672Y-85161181D01*
X26011415Y-85403214D01*
X26008621Y-85634871D01*
X26005329Y-85850181D01*
X26001578Y-86043174D01*
X25997407Y-86207876D01*
X25992855Y-86338316D01*
X25987961Y-86428523D01*
X25983943Y-86467050D01*
X25958961Y-86542081D01*
X25920200Y-86588168D01*
X25918410Y-86589173D01*
X25881038Y-86596662D01*
X25799426Y-86604890D01*
X25680169Y-86613449D01*
X25529864Y-86621935D01*
X25355109Y-86629943D01*
X25162501Y-86637067D01*
X25114008Y-86638611D01*
X25008755Y-86641022D01*
X24856753Y-86643274D01*
X24661162Y-86645365D01*
X24425141Y-86647297D01*
X24151850Y-86649070D01*
X23844451Y-86650684D01*
X23506101Y-86652138D01*
X23139962Y-86653434D01*
X22749193Y-86654571D01*
X22336954Y-86655551D01*
X21906405Y-86656372D01*
X21460706Y-86657035D01*
X21003017Y-86657541D01*
X20536497Y-86657890D01*
X20064307Y-86658081D01*
X19589607Y-86658116D01*
X19115556Y-86657994D01*
X18645315Y-86657715D01*
X18182043Y-86657281D01*
X17728900Y-86656690D01*
X17289046Y-86655944D01*
X16865641Y-86655043D01*
X16461846Y-86653986D01*
X16080819Y-86652774D01*
X15725720Y-86651408D01*
X15399711Y-86649886D01*
X15105950Y-86648211D01*
X14847598Y-86646382D01*
X14627814Y-86644398D01*
X14449758Y-86642262D01*
X14316591Y-86639971D01*
X14238590Y-86637812D01*
X14037167Y-86628660D01*
X13880923Y-86617539D01*
X13764191Y-86603181D01*
X13681303Y-86584319D01*
X13626593Y-86559686D01*
X13594394Y-86528015D01*
X13579533Y-86490434D01*
X13557543Y-86357417D01*
X13538728Y-86183004D01*
X13523102Y-85974107D01*
X13510679Y-85737635D01*
X13501472Y-85480497D01*
X13495496Y-85209605D01*
X13492765Y-84931867D01*
X13493291Y-84654194D01*
X13497090Y-84383496D01*
X13503471Y-84152187D01*
X15243443Y-84152187D01*
X15243443Y-84560347D01*
X15246978Y-84808921D01*
X15259219Y-85012006D01*
X15282621Y-85174577D01*
X15319638Y-85301610D01*
X15372725Y-85398081D01*
X15444336Y-85468966D01*
X15536926Y-85519240D01*
X15652950Y-85553880D01*
X15741661Y-85570301D01*
X15903875Y-85590335D01*
X16108126Y-85607447D01*
X16345680Y-85621519D01*
X16607800Y-85632430D01*
X16885751Y-85640062D01*
X17170796Y-85644296D01*
X17454201Y-85645012D01*
X17727229Y-85642091D01*
X17981144Y-85635414D01*
X18207212Y-85624863D01*
X18396695Y-85610317D01*
X18429076Y-85606957D01*
X18698032Y-85573589D01*
X18920279Y-85536785D01*
X19099918Y-85495176D01*
X19241048Y-85447393D01*
X19347770Y-85392068D01*
X19424183Y-85327832D01*
X19471602Y-85258973D01*
X19501528Y-85167696D01*
X19517869Y-85047134D01*
X19520459Y-84955522D01*
X20407665Y-84955522D01*
X20415995Y-85111110D01*
X20439786Y-85230169D01*
X20482797Y-85319548D01*
X20548784Y-85386095D01*
X20641506Y-85436659D01*
X20764719Y-85478089D01*
X20814182Y-85491300D01*
X20995649Y-85529841D01*
X21219415Y-85564582D01*
X21477039Y-85595048D01*
X21760079Y-85620765D01*
X22060092Y-85641255D01*
X22368637Y-85656045D01*
X22677271Y-85664659D01*
X22977552Y-85666621D01*
X23261037Y-85661457D01*
X23519286Y-85648691D01*
X23558831Y-85645825D01*
X23802386Y-85625403D01*
X24000917Y-85603994D01*
X24160251Y-85580139D01*
X24286214Y-85552381D01*
X24384631Y-85519261D01*
X24461328Y-85479323D01*
X24522131Y-85431109D01*
X24554079Y-85396804D01*
X24593326Y-85340064D01*
X24623651Y-85270089D01*
X24646043Y-85180244D01*
X24661493Y-85063891D01*
X24670990Y-84914396D01*
X24675523Y-84725120D01*
X24676276Y-84577177D01*
X24676276Y-84095196D01*
X20544920Y-84108208D01*
X20484116Y-84260760D01*
X20457403Y-84336134D01*
X20438494Y-84413954D01*
X20425523Y-84506884D01*
X20416622Y-84627585D01*
X20411038Y-84756556D01*
X20407665Y-84955522D01*
X19520459Y-84955522D01*
X19521841Y-84906691D01*
X19514657Y-84755770D01*
X19497532Y-84603776D01*
X19471679Y-84460114D01*
X19438314Y-84334187D01*
X19398651Y-84235399D01*
X19353904Y-84173156D01*
X19329502Y-84158507D01*
X19289401Y-84153476D01*
X19203580Y-84148720D01*
X19077171Y-84144276D01*
X18915303Y-84140183D01*
X18723109Y-84136480D01*
X18505718Y-84133204D01*
X18268261Y-84130393D01*
X18015870Y-84128087D01*
X17753674Y-84126323D01*
X17486805Y-84125140D01*
X17220394Y-84124576D01*
X16959571Y-84124669D01*
X16709467Y-84125458D01*
X16475213Y-84126980D01*
X16261940Y-84129275D01*
X16074778Y-84132380D01*
X16012562Y-84133756D01*
X15243443Y-84152187D01*
X13503471Y-84152187D01*
X13504175Y-84126682D01*
X13514560Y-83890663D01*
X13528259Y-83682347D01*
X13545286Y-83508646D01*
X13565654Y-83376469D01*
X13573197Y-83342800D01*
X13586345Y-83295100D01*
X13603091Y-83257821D01*
X13629513Y-83229339D01*
X13671691Y-83208028D01*
X13735706Y-83192266D01*
X13827638Y-83180428D01*
X13953566Y-83170889D01*
X14119569Y-83162025D01*
X14277277Y-83154694D01*
X14366437Y-83151856D01*
X14503285Y-83149202D01*
X14684657Y-83146734D01*
X14907391Y-83144451D01*
X15168322Y-83142353D01*
X15464289Y-83140441D01*
X15792128Y-83138715D01*
X16148676Y-83137175D01*
X16530770Y-83135821D01*
X16935247Y-83134653D01*
X17358944Y-83133671D01*
X17798697Y-83132876D01*
X18251344Y-83132267D01*
X18713722Y-83131846D01*
X19182667Y-83131611D01*
X19655017Y-83131563D01*
X20127608Y-83131702D01*
G36*
X22990258Y-91137841D02*
X23093558Y-91175562D01*
X23201552Y-91239775D01*
X23259581Y-91305631D01*
X23268198Y-91368937D01*
X23227954Y-91425498D01*
X23139398Y-91471122D01*
X23051738Y-91493784D01*
X22921025Y-91510902D01*
X22785481Y-91516121D01*
X22667520Y-91508985D01*
X22629529Y-91502400D01*
X22495842Y-91464285D01*
X22411760Y-91420527D01*
X22376238Y-91369991D01*
X22388229Y-91311542D01*
X22417591Y-91272425D01*
X22532283Y-91183593D01*
X22673453Y-91130478D01*
X22829858Y-91114690D01*
X22990258Y-91137841D01*
X22990258Y-91137841D01*
G37*
X22990258Y-91137841D02*
X23093558Y-91175562D01*
X23201552Y-91239775D01*
X23259581Y-91305631D01*
X23268198Y-91368937D01*
X23227954Y-91425498D01*
X23139398Y-91471122D01*
X23051738Y-91493784D01*
X22921025Y-91510902D01*
X22785481Y-91516121D01*
X22667520Y-91508985D01*
X22629529Y-91502400D01*
X22495842Y-91464285D01*
X22411760Y-91420527D01*
X22376238Y-91369991D01*
X22388229Y-91311542D01*
X22417591Y-91272425D01*
X22532283Y-91183593D01*
X22673453Y-91130478D01*
X22829858Y-91114690D01*
X22990258Y-91137841D01*
G36*
X21155029Y-91682678D02*
X21289061Y-91713495D01*
X21381594Y-91765686D01*
X21397561Y-91781081D01*
X21439932Y-91851387D01*
X21435343Y-91915837D01*
X21387633Y-91970896D01*
X21300640Y-92013032D01*
X21178203Y-92038709D01*
X21112039Y-92043977D01*
X21010432Y-92045322D01*
X20921164Y-92040909D01*
X20863182Y-92031692D01*
X20862297Y-92031408D01*
X20746772Y-91983420D01*
X20652133Y-91924936D01*
X20598248Y-91871889D01*
X20574077Y-91807447D01*
X20597372Y-91754076D01*
X20665698Y-91713056D01*
X20776620Y-91685670D01*
X20927704Y-91673200D01*
X20976876Y-91672555D01*
X21155029Y-91682678D01*
X21155029Y-91682678D01*
G37*
X21155029Y-91682678D02*
X21289061Y-91713495D01*
X21381594Y-91765686D01*
X21397561Y-91781081D01*
X21439932Y-91851387D01*
X21435343Y-91915837D01*
X21387633Y-91970896D01*
X21300640Y-92013032D01*
X21178203Y-92038709D01*
X21112039Y-92043977D01*
X21010432Y-92045322D01*
X20921164Y-92040909D01*
X20863182Y-92031692D01*
X20862297Y-92031408D01*
X20746772Y-91983420D01*
X20652133Y-91924936D01*
X20598248Y-91871889D01*
X20574077Y-91807447D01*
X20597372Y-91754076D01*
X20665698Y-91713056D01*
X20776620Y-91685670D01*
X20927704Y-91673200D01*
X20976876Y-91672555D01*
X21155029Y-91682678D01*
G36*
X14590091Y-91126196D02*
X14707919Y-91157718D01*
X14735817Y-91170120D01*
X14827088Y-91231964D01*
X14882433Y-91302544D01*
X14899256Y-91373492D01*
X14874964Y-91436443D01*
X14829651Y-91472607D01*
X14778359Y-91486471D01*
X14689787Y-91497613D01*
X14577453Y-91505544D01*
X14454878Y-91509772D01*
X14335584Y-91509810D01*
X14233089Y-91505167D01*
X14166570Y-91496621D01*
X14081308Y-91467457D01*
X14036707Y-91418863D01*
X14023417Y-91340595D01*
X14023412Y-91339817D01*
X14046353Y-91266254D01*
X14108860Y-91196957D01*
X14200177Y-91143507D01*
X14209012Y-91140031D01*
X14318814Y-91116106D01*
X14453115Y-91111910D01*
X14590091Y-91126196D01*
X14590091Y-91126196D01*
G37*
X14590091Y-91126196D02*
X14707919Y-91157718D01*
X14735817Y-91170120D01*
X14827088Y-91231964D01*
X14882433Y-91302544D01*
X14899256Y-91373492D01*
X14874964Y-91436443D01*
X14829651Y-91472607D01*
X14778359Y-91486471D01*
X14689787Y-91497613D01*
X14577453Y-91505544D01*
X14454878Y-91509772D01*
X14335584Y-91509810D01*
X14233089Y-91505167D01*
X14166570Y-91496621D01*
X14081308Y-91467457D01*
X14036707Y-91418863D01*
X14023417Y-91340595D01*
X14023412Y-91339817D01*
X14046353Y-91266254D01*
X14108860Y-91196957D01*
X14200177Y-91143507D01*
X14209012Y-91140031D01*
X14318814Y-91116106D01*
X14453115Y-91111910D01*
X14590091Y-91126196D01*
G36*
X12797194Y-91704798D02*
X12883403Y-91714108D01*
X12891591Y-91715770D01*
X12981796Y-91755980D01*
X13035829Y-91824186D01*
X13047413Y-91911306D01*
X13042983Y-91934812D01*
X13003059Y-91996157D01*
X12925023Y-92039652D01*
X12819028Y-92063449D01*
X12695229Y-92065699D01*
X12563779Y-92044556D01*
X12516067Y-92030706D01*
X12424827Y-91997338D01*
X12344526Y-91962150D01*
X12306307Y-91941250D01*
X12255909Y-91885825D01*
X12244620Y-91821666D01*
X12273050Y-91764840D01*
X12298899Y-91745977D01*
X12357303Y-91728603D01*
X12451402Y-91715030D01*
X12566127Y-91706027D01*
X12686414Y-91702360D01*
X12797194Y-91704798D01*
X12797194Y-91704798D01*
G37*
X12797194Y-91704798D02*
X12883403Y-91714108D01*
X12891591Y-91715770D01*
X12981796Y-91755980D01*
X13035829Y-91824186D01*
X13047413Y-91911306D01*
X13042983Y-91934812D01*
X13003059Y-91996157D01*
X12925023Y-92039652D01*
X12819028Y-92063449D01*
X12695229Y-92065699D01*
X12563779Y-92044556D01*
X12516067Y-92030706D01*
X12424827Y-91997338D01*
X12344526Y-91962150D01*
X12306307Y-91941250D01*
X12255909Y-91885825D01*
X12244620Y-91821666D01*
X12273050Y-91764840D01*
X12298899Y-91745977D01*
X12357303Y-91728603D01*
X12451402Y-91715030D01*
X12566127Y-91706027D01*
X12686414Y-91702360D01*
X12797194Y-91704798D01*
G36*
X10935443Y-91127605D02*
X11051032Y-91172846D01*
X11143875Y-91254639D01*
X11212191Y-91363208D01*
X11254199Y-91488775D01*
X11268118Y-91621564D01*
X11252166Y-91751800D01*
X11204562Y-91869704D01*
X11123525Y-91965502D01*
X11092304Y-91988550D01*
X10987116Y-92030784D01*
X10857783Y-92042336D01*
X10721344Y-92022356D01*
X10679047Y-92009193D01*
X10561335Y-91957685D01*
X10451400Y-91892880D01*
X10366536Y-91825545D01*
X10343501Y-91800332D01*
X10320780Y-91741022D01*
X10312856Y-91651960D01*
X10319282Y-91551908D01*
X10339612Y-91459629D01*
X10352364Y-91427335D01*
X10428547Y-91319715D01*
X10539853Y-91228618D01*
X10671865Y-91161453D01*
X10810168Y-91125633D01*
X10935443Y-91127605D01*
X10935443Y-91127605D01*
G37*
X10935443Y-91127605D02*
X11051032Y-91172846D01*
X11143875Y-91254639D01*
X11212191Y-91363208D01*
X11254199Y-91488775D01*
X11268118Y-91621564D01*
X11252166Y-91751800D01*
X11204562Y-91869704D01*
X11123525Y-91965502D01*
X11092304Y-91988550D01*
X10987116Y-92030784D01*
X10857783Y-92042336D01*
X10721344Y-92022356D01*
X10679047Y-92009193D01*
X10561335Y-91957685D01*
X10451400Y-91892880D01*
X10366536Y-91825545D01*
X10343501Y-91800332D01*
X10320780Y-91741022D01*
X10312856Y-91651960D01*
X10319282Y-91551908D01*
X10339612Y-91459629D01*
X10352364Y-91427335D01*
X10428547Y-91319715D01*
X10539853Y-91228618D01*
X10671865Y-91161453D01*
X10810168Y-91125633D01*
X10935443Y-91127605D01*
G36*
X51668016Y-5009715D02*
X53324026Y-5009734D01*
X54930596Y-5009765D01*
X56488430Y-5009811D01*
X57998236Y-5009871D01*
X59460718Y-5009946D01*
X60876581Y-5010036D01*
X62246531Y-5010143D01*
X63571273Y-5010267D01*
X64851513Y-5010408D01*
X66087956Y-5010567D01*
X67281307Y-5010746D01*
X68432272Y-5010944D01*
X69541556Y-5011161D01*
X70609865Y-5011400D01*
X71637904Y-5011660D01*
X72626378Y-5011942D01*
X73575993Y-5012247D01*
X74487454Y-5012574D01*
X75361466Y-5012926D01*
X76198736Y-5013302D01*
X76999967Y-5013704D01*
X77765867Y-5014131D01*
X78497139Y-5014584D01*
X79194490Y-5015065D01*
X79858624Y-5015573D01*
X80490248Y-5016110D01*
X81090066Y-5016676D01*
X81658785Y-5017271D01*
X82197109Y-5017896D01*
X82705743Y-5018552D01*
X83185394Y-5019240D01*
X83636766Y-5019960D01*
X84060565Y-5020712D01*
X84457496Y-5021498D01*
X84828265Y-5022318D01*
X85173578Y-5023173D01*
X85494138Y-5024063D01*
X85790653Y-5024988D01*
X86063826Y-5025951D01*
X86314365Y-5026950D01*
X86542973Y-5027987D01*
X86750357Y-5029063D01*
X86937221Y-5030178D01*
X87104272Y-5031332D01*
X87252214Y-5032527D01*
X87381754Y-5033763D01*
X87493595Y-5035040D01*
X87588445Y-5036360D01*
X87667007Y-5037723D01*
X87729988Y-5039129D01*
X87778093Y-5040579D01*
X87812027Y-5042074D01*
X87832495Y-5043614D01*
X87833033Y-5043675D01*
X88483543Y-5142535D01*
X89108973Y-5285362D01*
X89710820Y-5472768D01*
X90290579Y-5705366D01*
X90849747Y-5983769D01*
X91389820Y-6308591D01*
X91912296Y-6680444D01*
X92005402Y-6753063D01*
X92156909Y-6879723D01*
X92330713Y-7036416D01*
X92517231Y-7213560D01*
X92706880Y-7401570D01*
X92890078Y-7590863D01*
X93057243Y-7771855D01*
X93198791Y-7934963D01*
X93249382Y-7997197D01*
X93622436Y-8505101D01*
X93949809Y-9030006D01*
X94232558Y-9574436D01*
X94471743Y-10140916D01*
X94668422Y-10731971D01*
X94823651Y-11350124D01*
X94938490Y-11997900D01*
X94944721Y-12042092D01*
X94946785Y-12058782D01*
X94948784Y-12079176D01*
X94950720Y-12104089D01*
X94952594Y-12134332D01*
X94954407Y-12170719D01*
X94956160Y-12214062D01*
X94957855Y-12265176D01*
X94959492Y-12324871D01*
X94961073Y-12393963D01*
X94962600Y-12473262D01*
X94964073Y-12563583D01*
X94965493Y-12665739D01*
X94966862Y-12780541D01*
X94968182Y-12908804D01*
X94969452Y-13051339D01*
X94970676Y-13208961D01*
X94971853Y-13382481D01*
X94972985Y-13572714D01*
X94974073Y-13780471D01*
X94975119Y-14006565D01*
X94976124Y-14251811D01*
X94977089Y-14517020D01*
X94978014Y-14803005D01*
X94978903Y-15110580D01*
X94979755Y-15440557D01*
X94980571Y-15793749D01*
X94981354Y-16170969D01*
X94982105Y-16573031D01*
X94982824Y-17000746D01*
X94983512Y-17454929D01*
X94984172Y-17936391D01*
X94984804Y-18445947D01*
X94985410Y-18984408D01*
X94985991Y-19552587D01*
X94986547Y-20151298D01*
X94987081Y-20781354D01*
X94987593Y-21443567D01*
X94988085Y-22138751D01*
X94988557Y-22867718D01*
X94989012Y-23631281D01*
X94989451Y-24430253D01*
X94989874Y-25265447D01*
X94990282Y-26137676D01*
X94990678Y-27047753D01*
X94991063Y-27996492D01*
X94991436Y-28984703D01*
X94991801Y-30013202D01*
X94992158Y-31082800D01*
X94992507Y-32194311D01*
X94992852Y-33348547D01*
X94993192Y-34546322D01*
X94993529Y-35788448D01*
X94993864Y-37075738D01*
X94994199Y-38409006D01*
X94994534Y-39789064D01*
X94994872Y-41216724D01*
X94995212Y-42692801D01*
X94995557Y-44218107D01*
X94995905Y-45785735D01*
X95003289Y-79213813D01*
X36575375Y-79213813D01*
X36575375Y-95003003D01*
X24644494Y-94999263D01*
X23865654Y-94998978D01*
X23098596Y-94998618D01*
X22344941Y-94998185D01*
X21606310Y-94997682D01*
X20884324Y-94997112D01*
X20180602Y-94996479D01*
X19496768Y-94995785D01*
X18834440Y-94995034D01*
X18195241Y-94994228D01*
X17580790Y-94993371D01*
X16992710Y-94992466D01*
X16432620Y-94991515D01*
X15902142Y-94990522D01*
X15402896Y-94989490D01*
X14936503Y-94988422D01*
X14504585Y-94987320D01*
X14108762Y-94986189D01*
X13750655Y-94985030D01*
X13431885Y-94983848D01*
X13154073Y-94982645D01*
X12918840Y-94981423D01*
X12727805Y-94980187D01*
X12582592Y-94978940D01*
X12484819Y-94977683D01*
X12436109Y-94976421D01*
X12433933Y-94976290D01*
X11805324Y-94907773D01*
X11186159Y-94789909D01*
X10579154Y-94623755D01*
X9987025Y-94410370D01*
X9412487Y-94150810D01*
X8858256Y-93846132D01*
X8327047Y-93497394D01*
X7997197Y-93249019D01*
X7843525Y-93120230D01*
X7667701Y-92961484D01*
X7479414Y-92782473D01*
X7288355Y-92592887D01*
X7104215Y-92402415D01*
X6936683Y-92220749D01*
X6795449Y-92057579D01*
X6750980Y-92002802D01*
X6371113Y-91484716D01*
X6314106Y-91392673D01*
X9931550Y-91392673D01*
X9932452Y-91631543D01*
X9936789Y-91827687D01*
X9944870Y-91985131D01*
X9957000Y-92107897D01*
X9973488Y-92200009D01*
X9994640Y-92265492D01*
X10020765Y-92308369D01*
X10025976Y-92313953D01*
X10060997Y-92343475D01*
X10095601Y-92348687D01*
X10150350Y-92330810D01*
X10170431Y-92322526D01*
X10302699Y-92288278D01*
X10440074Y-92287823D01*
X10531728Y-92310023D01*
X10735356Y-92362379D01*
X10943865Y-92364372D01*
X11158190Y-92315994D01*
X11191770Y-92304069D01*
X11347619Y-92230433D01*
X11471855Y-92139532D01*
X11555841Y-92038000D01*
X11568085Y-92014841D01*
X11610729Y-91885231D01*
X11613924Y-91863977D01*
X11788703Y-91863977D01*
X11798372Y-92056519D01*
X11818394Y-92201000D01*
X11848689Y-92296769D01*
X11876840Y-92335213D01*
X11909801Y-92350427D01*
X11959742Y-92346931D01*
X12040604Y-92323520D01*
X12050529Y-92320172D01*
X12137049Y-92294322D01*
X12196924Y-92288169D01*
X12249785Y-92300326D01*
X12262174Y-92305217D01*
X12443485Y-92356664D01*
X12659524Y-92376381D01*
X12904953Y-92363954D01*
X12948329Y-92358729D01*
X13128747Y-92321491D01*
X13269531Y-92260204D01*
X13330667Y-92210015D01*
X13642615Y-92210015D01*
X13658209Y-92257547D01*
X13693407Y-92296023D01*
X13759242Y-92337142D01*
X13852757Y-92363513D01*
X13979259Y-92375624D01*
X14144055Y-92373960D01*
X14352451Y-92359008D01*
X14366266Y-92357717D01*
X14595783Y-92330974D01*
X14785691Y-92296794D01*
X14947007Y-92252541D01*
X15090744Y-92195581D01*
X15136321Y-92173484D01*
X15297615Y-92091791D01*
X15365874Y-92173904D01*
X15461350Y-92252759D01*
X15590324Y-92307343D01*
X15739101Y-92332331D01*
X15775714Y-92333333D01*
X15843561Y-92331069D01*
X15897495Y-92320665D01*
X15939587Y-92296699D01*
X15971907Y-92253753D01*
X15996525Y-92186405D01*
X16015513Y-92089236D01*
X16030942Y-91956825D01*
X16044881Y-91783752D01*
X16057402Y-91595995D01*
X16067473Y-91444549D01*
X16077451Y-91305286D01*
X16086548Y-91188455D01*
X16093975Y-91104307D01*
X16098031Y-91068418D01*
X16110212Y-90985785D01*
X17226626Y-90985785D01*
X17227717Y-91068418D01*
X17231166Y-91220084D01*
X17237371Y-91385049D01*
X17245744Y-91554704D01*
X17255700Y-91720438D01*
X17266651Y-91873643D01*
X17278010Y-92005708D01*
X17289192Y-92108024D01*
X17299608Y-92171981D01*
X17303871Y-92185911D01*
X17357197Y-92250247D01*
X17450639Y-92309297D01*
X17573485Y-92356390D01*
X17581083Y-92358557D01*
X17668863Y-92357166D01*
X17739325Y-92330222D01*
X17773467Y-92312476D01*
X17802408Y-92293374D01*
X17826577Y-92268818D01*
X17846405Y-92234712D01*
X17862320Y-92186959D01*
X17874754Y-92121463D01*
X17884135Y-92034126D01*
X17890894Y-91920851D01*
X17894345Y-91812550D01*
X18270803Y-91812550D01*
X18272164Y-91959447D01*
X18277734Y-92087294D01*
X18287607Y-92184538D01*
X18297677Y-92229834D01*
X18341564Y-92301553D01*
X18405461Y-92345612D01*
X18474571Y-92354495D01*
X18513160Y-92339300D01*
X18545973Y-92307587D01*
X18571640Y-92257189D01*
X18591525Y-92181420D01*
X18606989Y-92073596D01*
X18619395Y-91927033D01*
X18628152Y-91775055D01*
X18638556Y-91587523D01*
X18649285Y-91444825D01*
X18661541Y-91340952D01*
X18676528Y-91269895D01*
X18695446Y-91225643D01*
X18719497Y-91202188D01*
X18744338Y-91194192D01*
X18811335Y-91208284D01*
X18867232Y-91271736D01*
X18911931Y-91384260D01*
X18945330Y-91545570D01*
X18967330Y-91755379D01*
X18972797Y-91850250D01*
X18983477Y-92023572D01*
X18998389Y-92151953D01*
X19019485Y-92241253D01*
X19048715Y-92297330D01*
X19088031Y-92326044D01*
X19133665Y-92333333D01*
X19183709Y-92327567D01*
X19218455Y-92302200D01*
X19251297Y-92245133D01*
X19265246Y-92214474D01*
X19286140Y-92158869D01*
X19302215Y-92093107D01*
X19314675Y-92007989D01*
X19324728Y-91894313D01*
X19333579Y-91742882D01*
X19337255Y-91665216D01*
X19345597Y-91499781D01*
X19354115Y-91378041D01*
X19363732Y-91292850D01*
X19375374Y-91237057D01*
X19389965Y-91203514D01*
X19398329Y-91193176D01*
X19432753Y-91166712D01*
X19468742Y-91169847D01*
X19509224Y-91190334D01*
X19551036Y-91222522D01*
X19584893Y-91271531D01*
X19612745Y-91344080D01*
X19636542Y-91446891D01*
X19658234Y-91586681D01*
X19679773Y-91770172D01*
X19681075Y-91782454D01*
X19703151Y-91977190D01*
X19724399Y-92125932D01*
X19746783Y-92233463D01*
X19772268Y-92304561D01*
X19802819Y-92344009D01*
X19840402Y-92356587D01*
X19886982Y-92347075D01*
X19909346Y-92337806D01*
X19947538Y-92311806D01*
X19977496Y-92268970D01*
X20000122Y-92203793D01*
X20016319Y-92110775D01*
X20026992Y-91984413D01*
X20031252Y-91868073D01*
X20126389Y-91868073D01*
X20129360Y-92016494D01*
X20141017Y-92127984D01*
X20162186Y-92209259D01*
X20193691Y-92267035D01*
X20205637Y-92281172D01*
X20258564Y-92321306D01*
X20321505Y-92324669D01*
X20338121Y-92321591D01*
X20475632Y-92296803D01*
X20576306Y-92288739D01*
X20651170Y-92296961D01*
X20684245Y-92307808D01*
X20805874Y-92342708D01*
X20957448Y-92363569D01*
X21122150Y-92370207D01*
X21283162Y-92362437D01*
X21423667Y-92340073D01*
X21498098Y-92316775D01*
X21603566Y-92255070D01*
X21702511Y-92166547D01*
X21776831Y-92068447D01*
X21793522Y-92035401D01*
X21826338Y-91899179D01*
X21815834Y-91759440D01*
X21766769Y-91627611D01*
X21683899Y-91515117D01*
X21610234Y-91461316D01*
X21981429Y-91461316D01*
X21992230Y-91591845D01*
X22027063Y-91682664D01*
X22088716Y-91740264D01*
X22104755Y-91748482D01*
X22150522Y-91759760D01*
X22237925Y-91772699D01*
X22357822Y-91786270D01*
X22501069Y-91799446D01*
X22658523Y-91811196D01*
X22667667Y-91811797D01*
X22872693Y-91826110D01*
X23030205Y-91839795D01*
X23143513Y-91853968D01*
X23215923Y-91869745D01*
X23250745Y-91888242D01*
X23251285Y-91910576D01*
X23220852Y-91937861D01*
X23162754Y-91971215D01*
X23153821Y-91975810D01*
X23021741Y-92024012D01*
X22843514Y-92058057D01*
X22621961Y-92077505D01*
X22476976Y-92081895D01*
X22322767Y-92085358D01*
X22212166Y-92092431D01*
X22137967Y-92104872D01*
X22092960Y-92124441D01*
X22069939Y-92152899D01*
X22062528Y-92183077D01*
X22064833Y-92236434D01*
X22088736Y-92278074D01*
X22138903Y-92309131D01*
X22219997Y-92330737D01*
X22336684Y-92344026D01*
X22493627Y-92350129D01*
X22695491Y-92350179D01*
X22747665Y-92349471D01*
X22903855Y-92346786D01*
X23019289Y-92343298D01*
X23104057Y-92337483D01*
X23168248Y-92327820D01*
X23221953Y-92312786D01*
X23275259Y-92290861D01*
X23338259Y-92260520D01*
X23338680Y-92260313D01*
X23465870Y-92186712D01*
X23559407Y-92103478D01*
X23611512Y-92021240D01*
X23894336Y-92021240D01*
X23912041Y-92104121D01*
X23958507Y-92185224D01*
X23985915Y-92215207D01*
X24077612Y-92274097D01*
X24205540Y-92317160D01*
X24357369Y-92343652D01*
X24520771Y-92352832D01*
X24683415Y-92343959D01*
X24832972Y-92316289D01*
X24949225Y-92273180D01*
X25023138Y-92231612D01*
X25078274Y-92186908D01*
X25117859Y-92130798D01*
X25145124Y-92055009D01*
X25163295Y-91951269D01*
X25175602Y-91811308D01*
X25178231Y-91763125D01*
X25542419Y-91763125D01*
X25543191Y-91811765D01*
X25545930Y-91853936D01*
X25575345Y-91994193D01*
X25644196Y-92111913D01*
X25756693Y-92212927D01*
X25843505Y-92266108D01*
X25894164Y-92292409D01*
X25941333Y-92311926D01*
X25994237Y-92326105D01*
X26062102Y-92336392D01*
X26154154Y-92344236D01*
X26279618Y-92351081D01*
X26426295Y-92357482D01*
X26630991Y-92365880D01*
X26795290Y-92372029D01*
X26929594Y-92375966D01*
X27044306Y-92377726D01*
X27149828Y-92377345D01*
X27256563Y-92374859D01*
X27374913Y-92370305D01*
X27515282Y-92363717D01*
X27562206Y-92361400D01*
X27727450Y-92352096D01*
X27851731Y-92342005D01*
X27944931Y-92329721D01*
X28016933Y-92313838D01*
X28077621Y-92292950D01*
X28094740Y-92285657D01*
X28267426Y-92188610D01*
X28409113Y-92066665D01*
X28512955Y-91926913D01*
X28567171Y-91796410D01*
X28576216Y-91680384D01*
X28542336Y-91581010D01*
X28472555Y-91505389D01*
X28373894Y-91460622D01*
X28253373Y-91453809D01*
X28231428Y-91456900D01*
X28154844Y-91482163D01*
X28069945Y-91536807D01*
X27983874Y-91610666D01*
X27892600Y-91689174D01*
X27815944Y-91738229D01*
X27736598Y-91767958D01*
X27700070Y-91776741D01*
X27635023Y-91784862D01*
X27532081Y-91790744D01*
X27399770Y-91794503D01*
X27246616Y-91796254D01*
X27081145Y-91796110D01*
X26911883Y-91794187D01*
X26747356Y-91790600D01*
X26596089Y-91785462D01*
X26466610Y-91778888D01*
X26367442Y-91770994D01*
X26307113Y-91761893D01*
X26295626Y-91757863D01*
X26282438Y-91744562D01*
X26284109Y-91722632D01*
X26304518Y-91686597D01*
X26347547Y-91630979D01*
X26417077Y-91550302D01*
X26516989Y-91439087D01*
X26537491Y-91416511D01*
X26635911Y-91309165D01*
X26760878Y-91174279D01*
X26903789Y-91021058D01*
X27056040Y-90858706D01*
X27209027Y-90696429D01*
X27320520Y-90578785D01*
X27579117Y-90305799D01*
X27803675Y-90066829D01*
X27995988Y-89859817D01*
X28157852Y-89682700D01*
X28291062Y-89533418D01*
X28397413Y-89409910D01*
X28478701Y-89310115D01*
X28536721Y-89231972D01*
X28573269Y-89173420D01*
X28590139Y-89132399D01*
X28591791Y-89119471D01*
X28575534Y-89065554D01*
X28532431Y-88987144D01*
X28470989Y-88896305D01*
X28399710Y-88805097D01*
X28327101Y-88725583D01*
X28290040Y-88691508D01*
X28211180Y-88639076D01*
X28124630Y-88600415D01*
X28112707Y-88596872D01*
X28042532Y-88584306D01*
X27930964Y-88571862D01*
X27787459Y-88559998D01*
X27621472Y-88549174D01*
X27442461Y-88539848D01*
X27259882Y-88532479D01*
X27083191Y-88527527D01*
X26921844Y-88525448D01*
X26785297Y-88526703D01*
X26719019Y-88529257D01*
X26455804Y-88550223D01*
X26236285Y-88582637D01*
X26054234Y-88628271D01*
X25903426Y-88688896D01*
X25777634Y-88766285D01*
X25720316Y-88813492D01*
X25624658Y-88911534D01*
X25568576Y-89002900D01*
X25545501Y-89102279D01*
X25546735Y-89201676D01*
X25566616Y-89310766D01*
X25610574Y-89382124D01*
X25687704Y-89425243D01*
X25780779Y-89445993D01*
X25914321Y-89443417D01*
X26029224Y-89395340D01*
X26119207Y-89304567D01*
X26128000Y-89290989D01*
X26160334Y-89240501D01*
X26191881Y-89200867D01*
X26228952Y-89170775D01*
X26277854Y-89148910D01*
X26344897Y-89133959D01*
X26436389Y-89124609D01*
X26558638Y-89119544D01*
X26717953Y-89117453D01*
X26920642Y-89117020D01*
X26963414Y-89117017D01*
X27206484Y-89118008D01*
X27402412Y-89121169D01*
X27554873Y-89126780D01*
X27667539Y-89135120D01*
X27744084Y-89146470D01*
X27788183Y-89161111D01*
X27803509Y-89179321D01*
X27803603Y-89181079D01*
X27792255Y-89206693D01*
X27757212Y-89254863D01*
X27696980Y-89327216D01*
X27610064Y-89425379D01*
X27494966Y-89550981D01*
X27350193Y-89705648D01*
X27174247Y-89891009D01*
X26965635Y-90108690D01*
X26722860Y-90360319D01*
X26665308Y-90419784D01*
X26436757Y-90655949D01*
X26241102Y-90858823D01*
X26075838Y-91031618D01*
X25938457Y-91177546D01*
X25826453Y-91299818D01*
X25737320Y-91401645D01*
X25668550Y-91486240D01*
X25617636Y-91556813D01*
X25582073Y-91616577D01*
X25559354Y-91668742D01*
X25546971Y-91716521D01*
X25542419Y-91763125D01*
X25178231Y-91763125D01*
X25183099Y-91673942D01*
X25192026Y-91511230D01*
X25203701Y-91389739D01*
X25222040Y-91299853D01*
X25250957Y-91231954D01*
X25294368Y-91176425D01*
X25356189Y-91123652D01*
X25427958Y-91072520D01*
X25498016Y-91023459D01*
X25547744Y-90987087D01*
X25566166Y-90971497D01*
X25546676Y-90955839D01*
X25496257Y-90921366D01*
X25443928Y-90887221D01*
X25326332Y-90803251D01*
X25248148Y-90724306D01*
X25200410Y-90639760D01*
X25181294Y-90576043D01*
X25152873Y-90479528D01*
X25116814Y-90424779D01*
X25065749Y-90402712D01*
X25039319Y-90401001D01*
X24969196Y-90423797D01*
X24901315Y-90483384D01*
X24847205Y-90566554D01*
X24819450Y-90652843D01*
X24802714Y-90721236D01*
X24781148Y-90765917D01*
X24775319Y-90771312D01*
X24739696Y-90780172D01*
X24665099Y-90790684D01*
X24563310Y-90801384D01*
X24472910Y-90808897D01*
X24293411Y-90828320D01*
X24161850Y-90856352D01*
X24078912Y-90892759D01*
X24045284Y-90937304D01*
X24045415Y-90955474D01*
X24079851Y-91005013D01*
X24161641Y-91047747D01*
X24287610Y-91082571D01*
X24454582Y-91108382D01*
X24498412Y-91112923D01*
X24608186Y-91124267D01*
X24697574Y-91135171D01*
X24755449Y-91144179D01*
X24771366Y-91148677D01*
X24775954Y-91176498D01*
X24781539Y-91246171D01*
X24787561Y-91348717D01*
X24793461Y-91475161D01*
X24796466Y-91552005D01*
X24801592Y-91701639D01*
X24803785Y-91809020D01*
X24802275Y-91882699D01*
X24796292Y-91931227D01*
X24785069Y-91963155D01*
X24767835Y-91987035D01*
X24756247Y-91999107D01*
X24675592Y-92045230D01*
X24565138Y-92057625D01*
X24432670Y-92036821D01*
X24285975Y-91983343D01*
X24247467Y-91964664D01*
X24154038Y-91921338D01*
X24069720Y-91889675D01*
X24011195Y-91875844D01*
X24006789Y-91875675D01*
X23942410Y-91895641D01*
X23904692Y-91947954D01*
X23894336Y-92021240D01*
X23611512Y-92021240D01*
X23623618Y-92002134D01*
X23662833Y-91874205D01*
X23681379Y-91711215D01*
X23684401Y-91583283D01*
X23679610Y-91419732D01*
X23663019Y-91294338D01*
X23631297Y-91195117D01*
X23581113Y-91110086D01*
X23538530Y-91058421D01*
X23466923Y-90984491D01*
X23398627Y-90930000D01*
X23324072Y-90892028D01*
X23233690Y-90867654D01*
X23117912Y-90853957D01*
X22967169Y-90848017D01*
X22845645Y-90846931D01*
X22703534Y-90847834D01*
X22574543Y-90850980D01*
X22469502Y-90855930D01*
X22399247Y-90862249D01*
X22380990Y-90865660D01*
X22271964Y-90919812D01*
X22169896Y-91013011D01*
X22082698Y-91133465D01*
X22018280Y-91269379D01*
X21984554Y-91408959D01*
X21981429Y-91461316D01*
X21610234Y-91461316D01*
X21571985Y-91433382D01*
X21536236Y-91417620D01*
X21485053Y-91406396D01*
X21393758Y-91394549D01*
X21273060Y-91383154D01*
X21133669Y-91373288D01*
X21050363Y-91368780D01*
X20909801Y-91361061D01*
X20786347Y-91352428D01*
X20689289Y-91343677D01*
X20627918Y-91335603D01*
X20611774Y-91331233D01*
X20582866Y-91289966D01*
X20593798Y-91237623D01*
X20640113Y-91188102D01*
X20661845Y-91175035D01*
X20718399Y-91156012D01*
X20812079Y-91135320D01*
X20929344Y-91115591D01*
X21043463Y-91100875D01*
X21221539Y-91076071D01*
X21352241Y-91046192D01*
X21434604Y-91011572D01*
X21467661Y-90972548D01*
X21466291Y-90953930D01*
X21440759Y-90920192D01*
X21391476Y-90876631D01*
X21386572Y-90872918D01*
X21352632Y-90851261D01*
X21312607Y-90836532D01*
X21256544Y-90827459D01*
X21174495Y-90822774D01*
X21056508Y-90821205D01*
X20981368Y-90821192D01*
X20791513Y-90825102D01*
X20643732Y-90837265D01*
X20529640Y-90859613D01*
X20440856Y-90894081D01*
X20368995Y-90942601D01*
X20340483Y-90968994D01*
X20261721Y-91069686D01*
X20203021Y-91196660D01*
X20162464Y-91356396D01*
X20138135Y-91555373D01*
X20131279Y-91676007D01*
X20126389Y-91868073D01*
X20031252Y-91868073D01*
X20033042Y-91819203D01*
X20035374Y-91609644D01*
X20035465Y-91569475D01*
X20035206Y-91389250D01*
X20033549Y-91252641D01*
X20029966Y-91152421D01*
X20023929Y-91081363D01*
X20014907Y-91032238D01*
X20002372Y-90997821D01*
X19992330Y-90980280D01*
X19956018Y-90940713D01*
X19901145Y-90909322D01*
X19822498Y-90885308D01*
X19714870Y-90867875D01*
X19573050Y-90856227D01*
X19391829Y-90849568D01*
X19165996Y-90847101D01*
X19120820Y-90847041D01*
X18907707Y-90847631D01*
X18739430Y-90851544D01*
X18609978Y-90861865D01*
X18513335Y-90881682D01*
X18443490Y-90914081D01*
X18394429Y-90962147D01*
X18360138Y-91028966D01*
X18334605Y-91117626D01*
X18311815Y-91231212D01*
X18305551Y-91265465D01*
X18291023Y-91373059D01*
X18280326Y-91507805D01*
X18273555Y-91658152D01*
X18270803Y-91812550D01*
X17894345Y-91812550D01*
X17895461Y-91777543D01*
X17898265Y-91600105D01*
X17899736Y-91384439D01*
X17900305Y-91126449D01*
X17900400Y-90822039D01*
X17900400Y-90795095D01*
X17900270Y-90501418D01*
X17899786Y-90254010D01*
X17898801Y-90048290D01*
X17897173Y-89879676D01*
X17894756Y-89743587D01*
X17891407Y-89635441D01*
X17886980Y-89550658D01*
X17881332Y-89484654D01*
X17874318Y-89432850D01*
X17865794Y-89390664D01*
X17855615Y-89353514D01*
X17854901Y-89351191D01*
X17813524Y-89247107D01*
X17761941Y-89187244D01*
X17690416Y-89166593D01*
X17589210Y-89180147D01*
X17545292Y-89191952D01*
X17461956Y-89222473D01*
X17394571Y-89258135D01*
X17371153Y-89277102D01*
X17339485Y-89331070D01*
X17313649Y-89418991D01*
X17292817Y-89545452D01*
X17276162Y-89715041D01*
X17266968Y-89854354D01*
X17258739Y-89990845D01*
X17249573Y-90129413D01*
X17240856Y-90249628D01*
X17236503Y-90303459D01*
X17221906Y-90472885D01*
X16989081Y-90486957D01*
X16869989Y-90493459D01*
X16719649Y-90500652D01*
X16557640Y-90507645D01*
X16408899Y-90513358D01*
X16061542Y-90525687D01*
X16050448Y-90012042D01*
X16044739Y-89805303D01*
X16036720Y-89642388D01*
X16025082Y-89516279D01*
X16008515Y-89419959D01*
X15985711Y-89346411D01*
X15955362Y-89288617D01*
X15916160Y-89239560D01*
X15904063Y-89227078D01*
X15819430Y-89170403D01*
X15719124Y-89157207D01*
X15597950Y-89187150D01*
X15556887Y-89204433D01*
X15502553Y-89230233D01*
X15459133Y-89256769D01*
X15425247Y-89289805D01*
X15399520Y-89335110D01*
X15380573Y-89398449D01*
X15367030Y-89485589D01*
X15357514Y-89602297D01*
X15350647Y-89754338D01*
X15345053Y-89947479D01*
X15341220Y-90107486D01*
X15336768Y-90298037D01*
X15332588Y-90476376D01*
X15328860Y-90634871D01*
X15325766Y-90765891D01*
X15323484Y-90861802D01*
X15322194Y-90914974D01*
X15322151Y-90916663D01*
X15309908Y-90992222D01*
X15281229Y-91027577D01*
X15241487Y-91023929D01*
X15170472Y-91001044D01*
X15081827Y-90963525D01*
X15058756Y-90952519D01*
X14911409Y-90885299D01*
X14787735Y-90842011D01*
X14669317Y-90818058D01*
X14537733Y-90808844D01*
X14480680Y-90808251D01*
X14272519Y-90823717D01*
X14083448Y-90867633D01*
X13920101Y-90936823D01*
X13789114Y-91028107D01*
X13697121Y-91138307D01*
X13668684Y-91197200D01*
X13652091Y-91272485D01*
X13643684Y-91376250D01*
X13643364Y-91489867D01*
X13651037Y-91594704D01*
X13666605Y-91672132D01*
X13671210Y-91683924D01*
X13692784Y-91717964D01*
X13726984Y-91744656D01*
X13780150Y-91765263D01*
X13858624Y-91781050D01*
X13968745Y-91793281D01*
X14116856Y-91803221D01*
X14309298Y-91812134D01*
X14315415Y-91812383D01*
X14495717Y-91820865D01*
X14630842Y-91830536D01*
X14726463Y-91842602D01*
X14788255Y-91858263D01*
X14821891Y-91878724D01*
X14833045Y-91905188D01*
X14831814Y-91921885D01*
X14807396Y-91967781D01*
X14750207Y-92004739D01*
X14656281Y-92033795D01*
X14521653Y-92055984D01*
X14342359Y-92072344D01*
X14231352Y-92078832D01*
X14019078Y-92093146D01*
X13855757Y-92112739D01*
X13739700Y-92138294D01*
X13669216Y-92170492D01*
X13642615Y-92210015D01*
X13330667Y-92210015D01*
X13377459Y-92171602D01*
X13404983Y-92138500D01*
X13462495Y-92024085D01*
X13477098Y-91896387D01*
X13451512Y-91764576D01*
X13388455Y-91637819D01*
X13290645Y-91525284D01*
X13203963Y-91460503D01*
X13157158Y-91432944D01*
X13113365Y-91412860D01*
X13063004Y-91398614D01*
X12996497Y-91388567D01*
X12904264Y-91381083D01*
X12776727Y-91374524D01*
X12675736Y-91370204D01*
X12510676Y-91362385D01*
X12390235Y-91353446D01*
X12308184Y-91341549D01*
X12258295Y-91324856D01*
X12234342Y-91301527D01*
X12230095Y-91269725D01*
X12235801Y-91240324D01*
X12257141Y-91202725D01*
X12303335Y-91173152D01*
X12380785Y-91149707D01*
X12495895Y-91130488D01*
X12655066Y-91113596D01*
X12666193Y-91112612D01*
X12787479Y-91100157D01*
X12893477Y-91085920D01*
X12971878Y-91071764D01*
X13008236Y-91060868D01*
X13050199Y-91015837D01*
X13048357Y-90956577D01*
X13003320Y-90894381D01*
X12977619Y-90875549D01*
X12943265Y-90862289D01*
X12891649Y-90853650D01*
X12814161Y-90848681D01*
X12702193Y-90846431D01*
X12564731Y-90845945D01*
X12414466Y-90846483D01*
X12304712Y-90848951D01*
X12225135Y-90854631D01*
X12165399Y-90864808D01*
X12115170Y-90880762D01*
X12064111Y-90903777D01*
X12052552Y-90909509D01*
X11963650Y-90963208D01*
X11902994Y-91028489D01*
X11861969Y-91100200D01*
X11837441Y-91153228D01*
X11819797Y-91205138D01*
X11807629Y-91266104D01*
X11799530Y-91346299D01*
X11794091Y-91455895D01*
X11789905Y-91605067D01*
X11789467Y-91624022D01*
X11788703Y-91863977D01*
X11613924Y-91863977D01*
X11634515Y-91727007D01*
X11639477Y-91556801D01*
X11625646Y-91391247D01*
X11593055Y-91246978D01*
X11566463Y-91181369D01*
X11466949Y-91037432D01*
X11332271Y-90929862D01*
X11163048Y-90858900D01*
X10959900Y-90824784D01*
X10723448Y-90827756D01*
X10666358Y-90833486D01*
X10555940Y-90845124D01*
X10455371Y-90853883D01*
X10382670Y-90858241D01*
X10370810Y-90858465D01*
X10290869Y-90858658D01*
X10281710Y-90656971D01*
X10266905Y-90513635D01*
X10234166Y-90408755D01*
X10178369Y-90331573D01*
X10099346Y-90274115D01*
X10048366Y-90250577D01*
X10014164Y-90257761D01*
X9987811Y-90280971D01*
X9975064Y-90297683D01*
X9964813Y-90323279D01*
X9956695Y-90363302D01*
X9950349Y-90423289D01*
X9945411Y-90508784D01*
X9941520Y-90625324D01*
X9938314Y-90778452D01*
X9935428Y-90973707D01*
X9933776Y-91107055D01*
X9931550Y-91392673D01*
X6314106Y-91392673D01*
X6037468Y-90946021D01*
X5749822Y-90386171D01*
X5507948Y-89804615D01*
X5311623Y-89200804D01*
X5160621Y-88574189D01*
X5054718Y-87924220D01*
X5043675Y-87833033D01*
X5042071Y-87793832D01*
X5040502Y-87704866D01*
X5038967Y-87567221D01*
X5037467Y-87381983D01*
X5036002Y-87150236D01*
X5034571Y-86873068D01*
X5033175Y-86551563D01*
X5031813Y-86186808D01*
X5030486Y-85779889D01*
X5029194Y-85331890D01*
X5027936Y-84843898D01*
X5027792Y-84781846D01*
X11866987Y-84781846D01*
X11873079Y-84892727D01*
X11888384Y-85018249D01*
X11912730Y-85171308D01*
X11924766Y-85241986D01*
X11960671Y-85454148D01*
X11988664Y-85628889D01*
X12010254Y-85778760D01*
X12026947Y-85916312D01*
X12040252Y-86054096D01*
X12051676Y-86204661D01*
X12062727Y-86380559D01*
X12063857Y-86399800D01*
X12079171Y-86617844D01*
X12098292Y-86795579D01*
X12123363Y-86943519D01*
X12156527Y-87072179D01*
X12199928Y-87192073D01*
X12246189Y-87294374D01*
X12347690Y-87460688D01*
X12483552Y-87621851D01*
X12642778Y-87768421D01*
X12814368Y-87890956D01*
X12987324Y-87980012D01*
X13082282Y-88012170D01*
X13154090Y-88025936D01*
X13261329Y-88040050D01*
X13388625Y-88052720D01*
X13501801Y-88061057D01*
X13558582Y-88062944D01*
X13663422Y-88064740D01*
X13813532Y-88066444D01*
X14006120Y-88068056D01*
X14238395Y-88069575D01*
X14507568Y-88070998D01*
X14810846Y-88072326D01*
X15145439Y-88073558D01*
X15508557Y-88074692D01*
X15897409Y-88075727D01*
X16309203Y-88076663D01*
X16741150Y-88077498D01*
X17190457Y-88078231D01*
X17654335Y-88078862D01*
X18129993Y-88079389D01*
X18614639Y-88079812D01*
X19105484Y-88080129D01*
X19599735Y-88080340D01*
X20094603Y-88080443D01*
X20587297Y-88080437D01*
X21075026Y-88080322D01*
X21554999Y-88080096D01*
X22024424Y-88079758D01*
X22480513Y-88079308D01*
X22920473Y-88078745D01*
X23341514Y-88078067D01*
X23740845Y-88077273D01*
X24115675Y-88076362D01*
X24463214Y-88075334D01*
X24780670Y-88074188D01*
X25065253Y-88072922D01*
X25314173Y-88071535D01*
X25524637Y-88070027D01*
X25693856Y-88068396D01*
X25819039Y-88066642D01*
X25873559Y-88065485D01*
X26498771Y-88049149D01*
X26649035Y-87950252D01*
X26748654Y-87876399D01*
X26861409Y-87779555D01*
X26977981Y-87669202D01*
X27089048Y-87554825D01*
X27185291Y-87445908D01*
X27257388Y-87351934D01*
X27288994Y-87299099D01*
X27322726Y-87218669D01*
X27352387Y-87123216D01*
X27379060Y-87006593D01*
X27403828Y-86862656D01*
X27427774Y-86685259D01*
X27451981Y-86468256D01*
X27472834Y-86255928D01*
X27491830Y-86063684D01*
X27513244Y-85863479D01*
X27535444Y-85669487D01*
X27556804Y-85495882D01*
X27575691Y-85356838D01*
X27577985Y-85341341D01*
X27608643Y-85135728D01*
X27632150Y-84972304D01*
X27649009Y-84842989D01*
X27659719Y-84739699D01*
X27664782Y-84654354D01*
X27664698Y-84578870D01*
X27659967Y-84505166D01*
X27651092Y-84425160D01*
X27639968Y-84341042D01*
X27615562Y-84171413D01*
X27585887Y-83981398D01*
X27552337Y-83778527D01*
X27516307Y-83570332D01*
X27479191Y-83364341D01*
X27442385Y-83168087D01*
X27407281Y-82989099D01*
X27375276Y-82834908D01*
X27347763Y-82713045D01*
X27326137Y-82631039D01*
X27319759Y-82611910D01*
X27207180Y-82381364D01*
X27054649Y-82179939D01*
X26866562Y-82012202D01*
X26647317Y-81882722D01*
X26595895Y-81860055D01*
X26435240Y-81801148D01*
X26266467Y-81756333D01*
X26079282Y-81723869D01*
X25863395Y-81702016D01*
X25608513Y-81689036D01*
X25578878Y-81688111D01*
X25372291Y-81680961D01*
X25211448Y-81671377D01*
X25091244Y-81656621D01*
X25006573Y-81633958D01*
X24952330Y-81600652D01*
X24923409Y-81553964D01*
X24914705Y-81491161D01*
X24921111Y-81409504D01*
X24931596Y-81341200D01*
X24967512Y-81163495D01*
X25016694Y-80972047D01*
X25073549Y-80786211D01*
X25132482Y-80625343D01*
X25151026Y-80581944D01*
X25173017Y-80533781D01*
X25195143Y-80493261D01*
X25221789Y-80459617D01*
X25257342Y-80432080D01*
X25306187Y-80409882D01*
X25372710Y-80392255D01*
X25461297Y-80378432D01*
X25576335Y-80367645D01*
X25722209Y-80359125D01*
X25903305Y-80352105D01*
X26124009Y-80345817D01*
X26388708Y-80339493D01*
X26557757Y-80335650D01*
X26805455Y-80329701D01*
X27008046Y-80323436D01*
X27171269Y-80315706D01*
X27300860Y-80305362D01*
X27402559Y-80291253D01*
X27482101Y-80272230D01*
X27545225Y-80247143D01*
X27597669Y-80214843D01*
X27645171Y-80174179D01*
X27693467Y-80124002D01*
X27711122Y-80104533D01*
X27810886Y-79973934D01*
X27876407Y-79835965D01*
X27913330Y-79675848D01*
X27925102Y-79544344D01*
X27918533Y-79339982D01*
X27875419Y-79164667D01*
X27793011Y-79009447D01*
X27739567Y-78940473D01*
X27704599Y-78899907D01*
X27671764Y-78865330D01*
X27636899Y-78836262D01*
X27595842Y-78812225D01*
X27544430Y-78792742D01*
X27478502Y-78777335D01*
X27393894Y-78765525D01*
X27286445Y-78756834D01*
X27151992Y-78750786D01*
X26986372Y-78746901D01*
X26785424Y-78744702D01*
X26544986Y-78743710D01*
X26260894Y-78743448D01*
X26023823Y-78743443D01*
X25700280Y-78743640D01*
X25423015Y-78744420D01*
X25187458Y-78746070D01*
X24989037Y-78748874D01*
X24823181Y-78753120D01*
X24685319Y-78759093D01*
X24570880Y-78767078D01*
X24475292Y-78777361D01*
X24393985Y-78790228D01*
X24322386Y-78805965D01*
X24255926Y-78824857D01*
X24190032Y-78847190D01*
X24154348Y-78860306D01*
X24059942Y-78906469D01*
X23956877Y-78973084D01*
X23887906Y-79028114D01*
X23817915Y-79101758D01*
X23747615Y-79198608D01*
X23675181Y-79322559D01*
X23598785Y-79477504D01*
X23516600Y-79667337D01*
X23426799Y-79895952D01*
X23327554Y-80167242D01*
X23251913Y-80383383D01*
X23145308Y-80690114D01*
X23053227Y-80949800D01*
X22975090Y-81163953D01*
X22910317Y-81334083D01*
X22858327Y-81461703D01*
X22818540Y-81548322D01*
X22790376Y-81595453D01*
X22783716Y-81602446D01*
X22743535Y-81617768D01*
X22661544Y-81631246D01*
X22536826Y-81642902D01*
X22368462Y-81652761D01*
X22155536Y-81660845D01*
X21897129Y-81667179D01*
X21592325Y-81671786D01*
X21240205Y-81674688D01*
X20839853Y-81675910D01*
X20390350Y-81675475D01*
X19981746Y-81673885D01*
X19621068Y-81671959D01*
X19307659Y-81670003D01*
X19037939Y-81667927D01*
X18808327Y-81665642D01*
X18615241Y-81663058D01*
X18455101Y-81660086D01*
X18324326Y-81656638D01*
X18219334Y-81652623D01*
X18136545Y-81647954D01*
X18072377Y-81642540D01*
X18023249Y-81636292D01*
X17985581Y-81629122D01*
X17964572Y-81623640D01*
X17874763Y-81593701D01*
X17809460Y-81558965D01*
X17764355Y-81511080D01*
X17735144Y-81441693D01*
X17717518Y-81342454D01*
X17707172Y-81205008D01*
X17703287Y-81116902D01*
X17693898Y-80924834D01*
X17680961Y-80774899D01*
X17662059Y-80658392D01*
X17634778Y-80566606D01*
X17596704Y-80490837D01*
X17545420Y-80422379D01*
X17496027Y-80369787D01*
X17388542Y-80273812D01*
X17279689Y-80204307D01*
X17158592Y-80157631D01*
X17014378Y-80130142D01*
X16836174Y-80118199D01*
X16740980Y-80116924D01*
X16607380Y-80117190D01*
X16511732Y-80120024D01*
X16441136Y-80127732D01*
X16382693Y-80142623D01*
X16323504Y-80167003D01*
X16250671Y-80203180D01*
X16246311Y-80205405D01*
X16109333Y-80288795D01*
X16000320Y-80387956D01*
X15916144Y-80509209D01*
X15853676Y-80658875D01*
X15809788Y-80843275D01*
X15781353Y-81068729D01*
X15774449Y-81158858D01*
X15763259Y-81319328D01*
X15753208Y-81435944D01*
X15742758Y-81515631D01*
X15730373Y-81565316D01*
X15714514Y-81591924D01*
X15693644Y-81602383D01*
X15675675Y-81603803D01*
X15650610Y-81598529D01*
X15629956Y-81579304D01*
X15612875Y-81541024D01*
X15598530Y-81478584D01*
X15586084Y-81386880D01*
X15574699Y-81260808D01*
X15563538Y-81095263D01*
X15551763Y-80885140D01*
X15548958Y-80831469D01*
X15536807Y-80633394D01*
X15521538Y-80478120D01*
X15500413Y-80357603D01*
X15470691Y-80263794D01*
X15429633Y-80188648D01*
X15374500Y-80124116D01*
X15302552Y-80062153D01*
X15281581Y-80046094D01*
X15098824Y-79939329D01*
X14894422Y-79874572D01*
X14676057Y-79852288D01*
X14451409Y-79872940D01*
X14228161Y-79936995D01*
X14136896Y-79976838D01*
X14057695Y-80021817D01*
X13991133Y-80076704D01*
X13935827Y-80146287D01*
X13890396Y-80235359D01*
X13853455Y-80348709D01*
X13823623Y-80491129D01*
X13799517Y-80667409D01*
X13779754Y-80882339D01*
X13762952Y-81140711D01*
X13754543Y-81301605D01*
X13737579Y-81647754D01*
X13521276Y-81678014D01*
X13229618Y-81735566D01*
X12975350Y-81822744D01*
X12752632Y-81942394D01*
X12555626Y-82097364D01*
X12458178Y-82196405D01*
X12311776Y-82392676D01*
X12195099Y-82620535D01*
X12112965Y-82867237D01*
X12070191Y-83120038D01*
X12065056Y-83236315D01*
X12057429Y-83406251D01*
X12034914Y-83621285D01*
X11997370Y-83882507D01*
X11944658Y-84191009D01*
X11938131Y-84226775D01*
X11905678Y-84408068D01*
X11883116Y-84552413D01*
X11870276Y-84672706D01*
X11866987Y-84781846D01*
X5027792Y-84781846D01*
X5026713Y-84316998D01*
X5025524Y-83752277D01*
X5024370Y-83150820D01*
X5023251Y-82513713D01*
X5022166Y-81842041D01*
X5021116Y-81136891D01*
X5020101Y-80399348D01*
X5019120Y-79630498D01*
X5018174Y-78831427D01*
X5017262Y-78003220D01*
X5016385Y-77146963D01*
X5015543Y-76263742D01*
X5014735Y-75354643D01*
X5013962Y-74420751D01*
X5013224Y-73463153D01*
X5012520Y-72482934D01*
X5011850Y-71481179D01*
X5011216Y-70458975D01*
X5010616Y-69417407D01*
X5010050Y-68357562D01*
X5009520Y-67280524D01*
X5009023Y-66187380D01*
X5008562Y-65079215D01*
X5008135Y-63957115D01*
X5007742Y-62822166D01*
X5007385Y-61675454D01*
X5007062Y-60518064D01*
X5006773Y-59351083D01*
X5006519Y-58175595D01*
X5006300Y-56992687D01*
X5006115Y-55803445D01*
X5005965Y-54608953D01*
X5005850Y-53410299D01*
X5005769Y-52208568D01*
X5005723Y-51004845D01*
X5005711Y-49800216D01*
X5005734Y-48595767D01*
X5005792Y-47392585D01*
X5005884Y-46191754D01*
X5006011Y-44994360D01*
X5006173Y-43801489D01*
X5006369Y-42614227D01*
X5006600Y-41433660D01*
X5006865Y-40260873D01*
X5007165Y-39096952D01*
X5007500Y-37942984D01*
X5007869Y-36800053D01*
X5008273Y-35669245D01*
X5008711Y-34551647D01*
X5009184Y-33448343D01*
X5009692Y-32360421D01*
X5010234Y-31288965D01*
X5010811Y-30235061D01*
X5011422Y-29199795D01*
X5012069Y-28184253D01*
X5012749Y-27189521D01*
X5013465Y-26216683D01*
X5014215Y-25266827D01*
X5014999Y-24341038D01*
X5015819Y-23440402D01*
X5016672Y-22566004D01*
X5017561Y-21718930D01*
X5018484Y-20900265D01*
X5019442Y-20111097D01*
X5020434Y-19352510D01*
X5021461Y-18625590D01*
X5022522Y-17931424D01*
X5023618Y-17271095D01*
X5024749Y-16645692D01*
X5025915Y-16056299D01*
X5027115Y-15504001D01*
X5028349Y-14989886D01*
X5029619Y-14515038D01*
X5030922Y-14080543D01*
X5032261Y-13687487D01*
X5033634Y-13336957D01*
X5035042Y-13030037D01*
X5036484Y-12767813D01*
X5037961Y-12551371D01*
X5039472Y-12381797D01*
X5041019Y-12260177D01*
X5042599Y-12187597D01*
X5043675Y-12166966D01*
X5143255Y-11514007D01*
X5287656Y-10884895D01*
X5477160Y-10278942D01*
X5712051Y-9695456D01*
X5992612Y-9133747D01*
X6319124Y-8593126D01*
X6691870Y-8072901D01*
X6751301Y-7997197D01*
X6880320Y-7843212D01*
X7038644Y-7667648D01*
X7216750Y-7480035D01*
X7405114Y-7289904D01*
X7594212Y-7106784D01*
X7774522Y-6940205D01*
X7936520Y-6799697D01*
X7997197Y-6750442D01*
X8504381Y-6378129D01*
X9027378Y-6051653D01*
X9569011Y-5769834D01*
X10132108Y-5531490D01*
X10719494Y-5335440D01*
X11333995Y-5180503D01*
X11978438Y-5065496D01*
X12052552Y-5055058D01*
X12068600Y-5053042D01*
X12087434Y-5051088D01*
X12109823Y-5049193D01*
X12136535Y-5047356D01*
X12168338Y-5045577D01*
X12206000Y-5043855D01*
X12250290Y-5042189D01*
X12301977Y-5040578D01*
X12361827Y-5039021D01*
X12430609Y-5037517D01*
X12509093Y-5036065D01*
X12598045Y-5034665D01*
X12698234Y-5033314D01*
X12810429Y-5032014D01*
X12935397Y-5030762D01*
X13073907Y-5029557D01*
X13226727Y-5028399D01*
X13394625Y-5027287D01*
X13578370Y-5026220D01*
X13778730Y-5025196D01*
X13996473Y-5024216D01*
X14232367Y-5023278D01*
X14487180Y-5022381D01*
X14761681Y-5021524D01*
X15056638Y-5020706D01*
X15372819Y-5019927D01*
X15710993Y-5019186D01*
X16071927Y-5018481D01*
X16456390Y-5017811D01*
X16865151Y-5017177D01*
X17298977Y-5016576D01*
X17758636Y-5016008D01*
X18244897Y-5015472D01*
X18758528Y-5014968D01*
X19300298Y-5014493D01*
X19870974Y-5014047D01*
X20471325Y-5013630D01*
X21102119Y-5013241D01*
X21764125Y-5012877D01*
X22458109Y-5012539D01*
X23184842Y-5012226D01*
X23945090Y-5011937D01*
X24739623Y-5011670D01*
X25569208Y-5011426D01*
X26434614Y-5011202D01*
X27336609Y-5010998D01*
X28275961Y-5010814D01*
X29253439Y-5010647D01*
X30269810Y-5010498D01*
X31325843Y-5010365D01*
X32422306Y-5010248D01*
X33559967Y-5010145D01*
X34739595Y-5010056D01*
X35961958Y-5009979D01*
X37227824Y-5009915D01*
X38537961Y-5009861D01*
X39893138Y-5009817D01*
X41294123Y-5009782D01*
X42741683Y-5009755D01*
X44236588Y-5009735D01*
X45779606Y-5009722D01*
X47371504Y-5009713D01*
X49013051Y-5009710D01*
X49961861Y-5009709D01*
X51668016Y-5009715D01*
X51668016Y-5009715D01*
G37*
X51668016Y-5009715D02*
X53324026Y-5009734D01*
X54930596Y-5009765D01*
X56488430Y-5009811D01*
X57998236Y-5009871D01*
X59460718Y-5009946D01*
X60876581Y-5010036D01*
X62246531Y-5010143D01*
X63571273Y-5010267D01*
X64851513Y-5010408D01*
X66087956Y-5010567D01*
X67281307Y-5010746D01*
X68432272Y-5010944D01*
X69541556Y-5011161D01*
X70609865Y-5011400D01*
X71637904Y-5011660D01*
X72626378Y-5011942D01*
X73575993Y-5012247D01*
X74487454Y-5012574D01*
X75361466Y-5012926D01*
X76198736Y-5013302D01*
X76999967Y-5013704D01*
X77765867Y-5014131D01*
X78497139Y-5014584D01*
X79194490Y-5015065D01*
X79858624Y-5015573D01*
X80490248Y-5016110D01*
X81090066Y-5016676D01*
X81658785Y-5017271D01*
X82197109Y-5017896D01*
X82705743Y-5018552D01*
X83185394Y-5019240D01*
X83636766Y-5019960D01*
X84060565Y-5020712D01*
X84457496Y-5021498D01*
X84828265Y-5022318D01*
X85173578Y-5023173D01*
X85494138Y-5024063D01*
X85790653Y-5024988D01*
X86063826Y-5025951D01*
X86314365Y-5026950D01*
X86542973Y-5027987D01*
X86750357Y-5029063D01*
X86937221Y-5030178D01*
X87104272Y-5031332D01*
X87252214Y-5032527D01*
X87381754Y-5033763D01*
X87493595Y-5035040D01*
X87588445Y-5036360D01*
X87667007Y-5037723D01*
X87729988Y-5039129D01*
X87778093Y-5040579D01*
X87812027Y-5042074D01*
X87832495Y-5043614D01*
X87833033Y-5043675D01*
X88483543Y-5142535D01*
X89108973Y-5285362D01*
X89710820Y-5472768D01*
X90290579Y-5705366D01*
X90849747Y-5983769D01*
X91389820Y-6308591D01*
X91912296Y-6680444D01*
X92005402Y-6753063D01*
X92156909Y-6879723D01*
X92330713Y-7036416D01*
X92517231Y-7213560D01*
X92706880Y-7401570D01*
X92890078Y-7590863D01*
X93057243Y-7771855D01*
X93198791Y-7934963D01*
X93249382Y-7997197D01*
X93622436Y-8505101D01*
X93949809Y-9030006D01*
X94232558Y-9574436D01*
X94471743Y-10140916D01*
X94668422Y-10731971D01*
X94823651Y-11350124D01*
X94938490Y-11997900D01*
X94944721Y-12042092D01*
X94946785Y-12058782D01*
X94948784Y-12079176D01*
X94950720Y-12104089D01*
X94952594Y-12134332D01*
X94954407Y-12170719D01*
X94956160Y-12214062D01*
X94957855Y-12265176D01*
X94959492Y-12324871D01*
X94961073Y-12393963D01*
X94962600Y-12473262D01*
X94964073Y-12563583D01*
X94965493Y-12665739D01*
X94966862Y-12780541D01*
X94968182Y-12908804D01*
X94969452Y-13051339D01*
X94970676Y-13208961D01*
X94971853Y-13382481D01*
X94972985Y-13572714D01*
X94974073Y-13780471D01*
X94975119Y-14006565D01*
X94976124Y-14251811D01*
X94977089Y-14517020D01*
X94978014Y-14803005D01*
X94978903Y-15110580D01*
X94979755Y-15440557D01*
X94980571Y-15793749D01*
X94981354Y-16170969D01*
X94982105Y-16573031D01*
X94982824Y-17000746D01*
X94983512Y-17454929D01*
X94984172Y-17936391D01*
X94984804Y-18445947D01*
X94985410Y-18984408D01*
X94985991Y-19552587D01*
X94986547Y-20151298D01*
X94987081Y-20781354D01*
X94987593Y-21443567D01*
X94988085Y-22138751D01*
X94988557Y-22867718D01*
X94989012Y-23631281D01*
X94989451Y-24430253D01*
X94989874Y-25265447D01*
X94990282Y-26137676D01*
X94990678Y-27047753D01*
X94991063Y-27996492D01*
X94991436Y-28984703D01*
X94991801Y-30013202D01*
X94992158Y-31082800D01*
X94992507Y-32194311D01*
X94992852Y-33348547D01*
X94993192Y-34546322D01*
X94993529Y-35788448D01*
X94993864Y-37075738D01*
X94994199Y-38409006D01*
X94994534Y-39789064D01*
X94994872Y-41216724D01*
X94995212Y-42692801D01*
X94995557Y-44218107D01*
X94995905Y-45785735D01*
X95003289Y-79213813D01*
X36575375Y-79213813D01*
X36575375Y-95003003D01*
X24644494Y-94999263D01*
X23865654Y-94998978D01*
X23098596Y-94998618D01*
X22344941Y-94998185D01*
X21606310Y-94997682D01*
X20884324Y-94997112D01*
X20180602Y-94996479D01*
X19496768Y-94995785D01*
X18834440Y-94995034D01*
X18195241Y-94994228D01*
X17580790Y-94993371D01*
X16992710Y-94992466D01*
X16432620Y-94991515D01*
X15902142Y-94990522D01*
X15402896Y-94989490D01*
X14936503Y-94988422D01*
X14504585Y-94987320D01*
X14108762Y-94986189D01*
X13750655Y-94985030D01*
X13431885Y-94983848D01*
X13154073Y-94982645D01*
X12918840Y-94981423D01*
X12727805Y-94980187D01*
X12582592Y-94978940D01*
X12484819Y-94977683D01*
X12436109Y-94976421D01*
X12433933Y-94976290D01*
X11805324Y-94907773D01*
X11186159Y-94789909D01*
X10579154Y-94623755D01*
X9987025Y-94410370D01*
X9412487Y-94150810D01*
X8858256Y-93846132D01*
X8327047Y-93497394D01*
X7997197Y-93249019D01*
X7843525Y-93120230D01*
X7667701Y-92961484D01*
X7479414Y-92782473D01*
X7288355Y-92592887D01*
X7104215Y-92402415D01*
X6936683Y-92220749D01*
X6795449Y-92057579D01*
X6750980Y-92002802D01*
X6371113Y-91484716D01*
X6314106Y-91392673D01*
X9931550Y-91392673D01*
X9932452Y-91631543D01*
X9936789Y-91827687D01*
X9944870Y-91985131D01*
X9957000Y-92107897D01*
X9973488Y-92200009D01*
X9994640Y-92265492D01*
X10020765Y-92308369D01*
X10025976Y-92313953D01*
X10060997Y-92343475D01*
X10095601Y-92348687D01*
X10150350Y-92330810D01*
X10170431Y-92322526D01*
X10302699Y-92288278D01*
X10440074Y-92287823D01*
X10531728Y-92310023D01*
X10735356Y-92362379D01*
X10943865Y-92364372D01*
X11158190Y-92315994D01*
X11191770Y-92304069D01*
X11347619Y-92230433D01*
X11471855Y-92139532D01*
X11555841Y-92038000D01*
X11568085Y-92014841D01*
X11610729Y-91885231D01*
X11613924Y-91863977D01*
X11788703Y-91863977D01*
X11798372Y-92056519D01*
X11818394Y-92201000D01*
X11848689Y-92296769D01*
X11876840Y-92335213D01*
X11909801Y-92350427D01*
X11959742Y-92346931D01*
X12040604Y-92323520D01*
X12050529Y-92320172D01*
X12137049Y-92294322D01*
X12196924Y-92288169D01*
X12249785Y-92300326D01*
X12262174Y-92305217D01*
X12443485Y-92356664D01*
X12659524Y-92376381D01*
X12904953Y-92363954D01*
X12948329Y-92358729D01*
X13128747Y-92321491D01*
X13269531Y-92260204D01*
X13330667Y-92210015D01*
X13642615Y-92210015D01*
X13658209Y-92257547D01*
X13693407Y-92296023D01*
X13759242Y-92337142D01*
X13852757Y-92363513D01*
X13979259Y-92375624D01*
X14144055Y-92373960D01*
X14352451Y-92359008D01*
X14366266Y-92357717D01*
X14595783Y-92330974D01*
X14785691Y-92296794D01*
X14947007Y-92252541D01*
X15090744Y-92195581D01*
X15136321Y-92173484D01*
X15297615Y-92091791D01*
X15365874Y-92173904D01*
X15461350Y-92252759D01*
X15590324Y-92307343D01*
X15739101Y-92332331D01*
X15775714Y-92333333D01*
X15843561Y-92331069D01*
X15897495Y-92320665D01*
X15939587Y-92296699D01*
X15971907Y-92253753D01*
X15996525Y-92186405D01*
X16015513Y-92089236D01*
X16030942Y-91956825D01*
X16044881Y-91783752D01*
X16057402Y-91595995D01*
X16067473Y-91444549D01*
X16077451Y-91305286D01*
X16086548Y-91188455D01*
X16093975Y-91104307D01*
X16098031Y-91068418D01*
X16110212Y-90985785D01*
X17226626Y-90985785D01*
X17227717Y-91068418D01*
X17231166Y-91220084D01*
X17237371Y-91385049D01*
X17245744Y-91554704D01*
X17255700Y-91720438D01*
X17266651Y-91873643D01*
X17278010Y-92005708D01*
X17289192Y-92108024D01*
X17299608Y-92171981D01*
X17303871Y-92185911D01*
X17357197Y-92250247D01*
X17450639Y-92309297D01*
X17573485Y-92356390D01*
X17581083Y-92358557D01*
X17668863Y-92357166D01*
X17739325Y-92330222D01*
X17773467Y-92312476D01*
X17802408Y-92293374D01*
X17826577Y-92268818D01*
X17846405Y-92234712D01*
X17862320Y-92186959D01*
X17874754Y-92121463D01*
X17884135Y-92034126D01*
X17890894Y-91920851D01*
X17894345Y-91812550D01*
X18270803Y-91812550D01*
X18272164Y-91959447D01*
X18277734Y-92087294D01*
X18287607Y-92184538D01*
X18297677Y-92229834D01*
X18341564Y-92301553D01*
X18405461Y-92345612D01*
X18474571Y-92354495D01*
X18513160Y-92339300D01*
X18545973Y-92307587D01*
X18571640Y-92257189D01*
X18591525Y-92181420D01*
X18606989Y-92073596D01*
X18619395Y-91927033D01*
X18628152Y-91775055D01*
X18638556Y-91587523D01*
X18649285Y-91444825D01*
X18661541Y-91340952D01*
X18676528Y-91269895D01*
X18695446Y-91225643D01*
X18719497Y-91202188D01*
X18744338Y-91194192D01*
X18811335Y-91208284D01*
X18867232Y-91271736D01*
X18911931Y-91384260D01*
X18945330Y-91545570D01*
X18967330Y-91755379D01*
X18972797Y-91850250D01*
X18983477Y-92023572D01*
X18998389Y-92151953D01*
X19019485Y-92241253D01*
X19048715Y-92297330D01*
X19088031Y-92326044D01*
X19133665Y-92333333D01*
X19183709Y-92327567D01*
X19218455Y-92302200D01*
X19251297Y-92245133D01*
X19265246Y-92214474D01*
X19286140Y-92158869D01*
X19302215Y-92093107D01*
X19314675Y-92007989D01*
X19324728Y-91894313D01*
X19333579Y-91742882D01*
X19337255Y-91665216D01*
X19345597Y-91499781D01*
X19354115Y-91378041D01*
X19363732Y-91292850D01*
X19375374Y-91237057D01*
X19389965Y-91203514D01*
X19398329Y-91193176D01*
X19432753Y-91166712D01*
X19468742Y-91169847D01*
X19509224Y-91190334D01*
X19551036Y-91222522D01*
X19584893Y-91271531D01*
X19612745Y-91344080D01*
X19636542Y-91446891D01*
X19658234Y-91586681D01*
X19679773Y-91770172D01*
X19681075Y-91782454D01*
X19703151Y-91977190D01*
X19724399Y-92125932D01*
X19746783Y-92233463D01*
X19772268Y-92304561D01*
X19802819Y-92344009D01*
X19840402Y-92356587D01*
X19886982Y-92347075D01*
X19909346Y-92337806D01*
X19947538Y-92311806D01*
X19977496Y-92268970D01*
X20000122Y-92203793D01*
X20016319Y-92110775D01*
X20026992Y-91984413D01*
X20031252Y-91868073D01*
X20126389Y-91868073D01*
X20129360Y-92016494D01*
X20141017Y-92127984D01*
X20162186Y-92209259D01*
X20193691Y-92267035D01*
X20205637Y-92281172D01*
X20258564Y-92321306D01*
X20321505Y-92324669D01*
X20338121Y-92321591D01*
X20475632Y-92296803D01*
X20576306Y-92288739D01*
X20651170Y-92296961D01*
X20684245Y-92307808D01*
X20805874Y-92342708D01*
X20957448Y-92363569D01*
X21122150Y-92370207D01*
X21283162Y-92362437D01*
X21423667Y-92340073D01*
X21498098Y-92316775D01*
X21603566Y-92255070D01*
X21702511Y-92166547D01*
X21776831Y-92068447D01*
X21793522Y-92035401D01*
X21826338Y-91899179D01*
X21815834Y-91759440D01*
X21766769Y-91627611D01*
X21683899Y-91515117D01*
X21610234Y-91461316D01*
X21981429Y-91461316D01*
X21992230Y-91591845D01*
X22027063Y-91682664D01*
X22088716Y-91740264D01*
X22104755Y-91748482D01*
X22150522Y-91759760D01*
X22237925Y-91772699D01*
X22357822Y-91786270D01*
X22501069Y-91799446D01*
X22658523Y-91811196D01*
X22667667Y-91811797D01*
X22872693Y-91826110D01*
X23030205Y-91839795D01*
X23143513Y-91853968D01*
X23215923Y-91869745D01*
X23250745Y-91888242D01*
X23251285Y-91910576D01*
X23220852Y-91937861D01*
X23162754Y-91971215D01*
X23153821Y-91975810D01*
X23021741Y-92024012D01*
X22843514Y-92058057D01*
X22621961Y-92077505D01*
X22476976Y-92081895D01*
X22322767Y-92085358D01*
X22212166Y-92092431D01*
X22137967Y-92104872D01*
X22092960Y-92124441D01*
X22069939Y-92152899D01*
X22062528Y-92183077D01*
X22064833Y-92236434D01*
X22088736Y-92278074D01*
X22138903Y-92309131D01*
X22219997Y-92330737D01*
X22336684Y-92344026D01*
X22493627Y-92350129D01*
X22695491Y-92350179D01*
X22747665Y-92349471D01*
X22903855Y-92346786D01*
X23019289Y-92343298D01*
X23104057Y-92337483D01*
X23168248Y-92327820D01*
X23221953Y-92312786D01*
X23275259Y-92290861D01*
X23338259Y-92260520D01*
X23338680Y-92260313D01*
X23465870Y-92186712D01*
X23559407Y-92103478D01*
X23611512Y-92021240D01*
X23894336Y-92021240D01*
X23912041Y-92104121D01*
X23958507Y-92185224D01*
X23985915Y-92215207D01*
X24077612Y-92274097D01*
X24205540Y-92317160D01*
X24357369Y-92343652D01*
X24520771Y-92352832D01*
X24683415Y-92343959D01*
X24832972Y-92316289D01*
X24949225Y-92273180D01*
X25023138Y-92231612D01*
X25078274Y-92186908D01*
X25117859Y-92130798D01*
X25145124Y-92055009D01*
X25163295Y-91951269D01*
X25175602Y-91811308D01*
X25178231Y-91763125D01*
X25542419Y-91763125D01*
X25543191Y-91811765D01*
X25545930Y-91853936D01*
X25575345Y-91994193D01*
X25644196Y-92111913D01*
X25756693Y-92212927D01*
X25843505Y-92266108D01*
X25894164Y-92292409D01*
X25941333Y-92311926D01*
X25994237Y-92326105D01*
X26062102Y-92336392D01*
X26154154Y-92344236D01*
X26279618Y-92351081D01*
X26426295Y-92357482D01*
X26630991Y-92365880D01*
X26795290Y-92372029D01*
X26929594Y-92375966D01*
X27044306Y-92377726D01*
X27149828Y-92377345D01*
X27256563Y-92374859D01*
X27374913Y-92370305D01*
X27515282Y-92363717D01*
X27562206Y-92361400D01*
X27727450Y-92352096D01*
X27851731Y-92342005D01*
X27944931Y-92329721D01*
X28016933Y-92313838D01*
X28077621Y-92292950D01*
X28094740Y-92285657D01*
X28267426Y-92188610D01*
X28409113Y-92066665D01*
X28512955Y-91926913D01*
X28567171Y-91796410D01*
X28576216Y-91680384D01*
X28542336Y-91581010D01*
X28472555Y-91505389D01*
X28373894Y-91460622D01*
X28253373Y-91453809D01*
X28231428Y-91456900D01*
X28154844Y-91482163D01*
X28069945Y-91536807D01*
X27983874Y-91610666D01*
X27892600Y-91689174D01*
X27815944Y-91738229D01*
X27736598Y-91767958D01*
X27700070Y-91776741D01*
X27635023Y-91784862D01*
X27532081Y-91790744D01*
X27399770Y-91794503D01*
X27246616Y-91796254D01*
X27081145Y-91796110D01*
X26911883Y-91794187D01*
X26747356Y-91790600D01*
X26596089Y-91785462D01*
X26466610Y-91778888D01*
X26367442Y-91770994D01*
X26307113Y-91761893D01*
X26295626Y-91757863D01*
X26282438Y-91744562D01*
X26284109Y-91722632D01*
X26304518Y-91686597D01*
X26347547Y-91630979D01*
X26417077Y-91550302D01*
X26516989Y-91439087D01*
X26537491Y-91416511D01*
X26635911Y-91309165D01*
X26760878Y-91174279D01*
X26903789Y-91021058D01*
X27056040Y-90858706D01*
X27209027Y-90696429D01*
X27320520Y-90578785D01*
X27579117Y-90305799D01*
X27803675Y-90066829D01*
X27995988Y-89859817D01*
X28157852Y-89682700D01*
X28291062Y-89533418D01*
X28397413Y-89409910D01*
X28478701Y-89310115D01*
X28536721Y-89231972D01*
X28573269Y-89173420D01*
X28590139Y-89132399D01*
X28591791Y-89119471D01*
X28575534Y-89065554D01*
X28532431Y-88987144D01*
X28470989Y-88896305D01*
X28399710Y-88805097D01*
X28327101Y-88725583D01*
X28290040Y-88691508D01*
X28211180Y-88639076D01*
X28124630Y-88600415D01*
X28112707Y-88596872D01*
X28042532Y-88584306D01*
X27930964Y-88571862D01*
X27787459Y-88559998D01*
X27621472Y-88549174D01*
X27442461Y-88539848D01*
X27259882Y-88532479D01*
X27083191Y-88527527D01*
X26921844Y-88525448D01*
X26785297Y-88526703D01*
X26719019Y-88529257D01*
X26455804Y-88550223D01*
X26236285Y-88582637D01*
X26054234Y-88628271D01*
X25903426Y-88688896D01*
X25777634Y-88766285D01*
X25720316Y-88813492D01*
X25624658Y-88911534D01*
X25568576Y-89002900D01*
X25545501Y-89102279D01*
X25546735Y-89201676D01*
X25566616Y-89310766D01*
X25610574Y-89382124D01*
X25687704Y-89425243D01*
X25780779Y-89445993D01*
X25914321Y-89443417D01*
X26029224Y-89395340D01*
X26119207Y-89304567D01*
X26128000Y-89290989D01*
X26160334Y-89240501D01*
X26191881Y-89200867D01*
X26228952Y-89170775D01*
X26277854Y-89148910D01*
X26344897Y-89133959D01*
X26436389Y-89124609D01*
X26558638Y-89119544D01*
X26717953Y-89117453D01*
X26920642Y-89117020D01*
X26963414Y-89117017D01*
X27206484Y-89118008D01*
X27402412Y-89121169D01*
X27554873Y-89126780D01*
X27667539Y-89135120D01*
X27744084Y-89146470D01*
X27788183Y-89161111D01*
X27803509Y-89179321D01*
X27803603Y-89181079D01*
X27792255Y-89206693D01*
X27757212Y-89254863D01*
X27696980Y-89327216D01*
X27610064Y-89425379D01*
X27494966Y-89550981D01*
X27350193Y-89705648D01*
X27174247Y-89891009D01*
X26965635Y-90108690D01*
X26722860Y-90360319D01*
X26665308Y-90419784D01*
X26436757Y-90655949D01*
X26241102Y-90858823D01*
X26075838Y-91031618D01*
X25938457Y-91177546D01*
X25826453Y-91299818D01*
X25737320Y-91401645D01*
X25668550Y-91486240D01*
X25617636Y-91556813D01*
X25582073Y-91616577D01*
X25559354Y-91668742D01*
X25546971Y-91716521D01*
X25542419Y-91763125D01*
X25178231Y-91763125D01*
X25183099Y-91673942D01*
X25192026Y-91511230D01*
X25203701Y-91389739D01*
X25222040Y-91299853D01*
X25250957Y-91231954D01*
X25294368Y-91176425D01*
X25356189Y-91123652D01*
X25427958Y-91072520D01*
X25498016Y-91023459D01*
X25547744Y-90987087D01*
X25566166Y-90971497D01*
X25546676Y-90955839D01*
X25496257Y-90921366D01*
X25443928Y-90887221D01*
X25326332Y-90803251D01*
X25248148Y-90724306D01*
X25200410Y-90639760D01*
X25181294Y-90576043D01*
X25152873Y-90479528D01*
X25116814Y-90424779D01*
X25065749Y-90402712D01*
X25039319Y-90401001D01*
X24969196Y-90423797D01*
X24901315Y-90483384D01*
X24847205Y-90566554D01*
X24819450Y-90652843D01*
X24802714Y-90721236D01*
X24781148Y-90765917D01*
X24775319Y-90771312D01*
X24739696Y-90780172D01*
X24665099Y-90790684D01*
X24563310Y-90801384D01*
X24472910Y-90808897D01*
X24293411Y-90828320D01*
X24161850Y-90856352D01*
X24078912Y-90892759D01*
X24045284Y-90937304D01*
X24045415Y-90955474D01*
X24079851Y-91005013D01*
X24161641Y-91047747D01*
X24287610Y-91082571D01*
X24454582Y-91108382D01*
X24498412Y-91112923D01*
X24608186Y-91124267D01*
X24697574Y-91135171D01*
X24755449Y-91144179D01*
X24771366Y-91148677D01*
X24775954Y-91176498D01*
X24781539Y-91246171D01*
X24787561Y-91348717D01*
X24793461Y-91475161D01*
X24796466Y-91552005D01*
X24801592Y-91701639D01*
X24803785Y-91809020D01*
X24802275Y-91882699D01*
X24796292Y-91931227D01*
X24785069Y-91963155D01*
X24767835Y-91987035D01*
X24756247Y-91999107D01*
X24675592Y-92045230D01*
X24565138Y-92057625D01*
X24432670Y-92036821D01*
X24285975Y-91983343D01*
X24247467Y-91964664D01*
X24154038Y-91921338D01*
X24069720Y-91889675D01*
X24011195Y-91875844D01*
X24006789Y-91875675D01*
X23942410Y-91895641D01*
X23904692Y-91947954D01*
X23894336Y-92021240D01*
X23611512Y-92021240D01*
X23623618Y-92002134D01*
X23662833Y-91874205D01*
X23681379Y-91711215D01*
X23684401Y-91583283D01*
X23679610Y-91419732D01*
X23663019Y-91294338D01*
X23631297Y-91195117D01*
X23581113Y-91110086D01*
X23538530Y-91058421D01*
X23466923Y-90984491D01*
X23398627Y-90930000D01*
X23324072Y-90892028D01*
X23233690Y-90867654D01*
X23117912Y-90853957D01*
X22967169Y-90848017D01*
X22845645Y-90846931D01*
X22703534Y-90847834D01*
X22574543Y-90850980D01*
X22469502Y-90855930D01*
X22399247Y-90862249D01*
X22380990Y-90865660D01*
X22271964Y-90919812D01*
X22169896Y-91013011D01*
X22082698Y-91133465D01*
X22018280Y-91269379D01*
X21984554Y-91408959D01*
X21981429Y-91461316D01*
X21610234Y-91461316D01*
X21571985Y-91433382D01*
X21536236Y-91417620D01*
X21485053Y-91406396D01*
X21393758Y-91394549D01*
X21273060Y-91383154D01*
X21133669Y-91373288D01*
X21050363Y-91368780D01*
X20909801Y-91361061D01*
X20786347Y-91352428D01*
X20689289Y-91343677D01*
X20627918Y-91335603D01*
X20611774Y-91331233D01*
X20582866Y-91289966D01*
X20593798Y-91237623D01*
X20640113Y-91188102D01*
X20661845Y-91175035D01*
X20718399Y-91156012D01*
X20812079Y-91135320D01*
X20929344Y-91115591D01*
X21043463Y-91100875D01*
X21221539Y-91076071D01*
X21352241Y-91046192D01*
X21434604Y-91011572D01*
X21467661Y-90972548D01*
X21466291Y-90953930D01*
X21440759Y-90920192D01*
X21391476Y-90876631D01*
X21386572Y-90872918D01*
X21352632Y-90851261D01*
X21312607Y-90836532D01*
X21256544Y-90827459D01*
X21174495Y-90822774D01*
X21056508Y-90821205D01*
X20981368Y-90821192D01*
X20791513Y-90825102D01*
X20643732Y-90837265D01*
X20529640Y-90859613D01*
X20440856Y-90894081D01*
X20368995Y-90942601D01*
X20340483Y-90968994D01*
X20261721Y-91069686D01*
X20203021Y-91196660D01*
X20162464Y-91356396D01*
X20138135Y-91555373D01*
X20131279Y-91676007D01*
X20126389Y-91868073D01*
X20031252Y-91868073D01*
X20033042Y-91819203D01*
X20035374Y-91609644D01*
X20035465Y-91569475D01*
X20035206Y-91389250D01*
X20033549Y-91252641D01*
X20029966Y-91152421D01*
X20023929Y-91081363D01*
X20014907Y-91032238D01*
X20002372Y-90997821D01*
X19992330Y-90980280D01*
X19956018Y-90940713D01*
X19901145Y-90909322D01*
X19822498Y-90885308D01*
X19714870Y-90867875D01*
X19573050Y-90856227D01*
X19391829Y-90849568D01*
X19165996Y-90847101D01*
X19120820Y-90847041D01*
X18907707Y-90847631D01*
X18739430Y-90851544D01*
X18609978Y-90861865D01*
X18513335Y-90881682D01*
X18443490Y-90914081D01*
X18394429Y-90962147D01*
X18360138Y-91028966D01*
X18334605Y-91117626D01*
X18311815Y-91231212D01*
X18305551Y-91265465D01*
X18291023Y-91373059D01*
X18280326Y-91507805D01*
X18273555Y-91658152D01*
X18270803Y-91812550D01*
X17894345Y-91812550D01*
X17895461Y-91777543D01*
X17898265Y-91600105D01*
X17899736Y-91384439D01*
X17900305Y-91126449D01*
X17900400Y-90822039D01*
X17900400Y-90795095D01*
X17900270Y-90501418D01*
X17899786Y-90254010D01*
X17898801Y-90048290D01*
X17897173Y-89879676D01*
X17894756Y-89743587D01*
X17891407Y-89635441D01*
X17886980Y-89550658D01*
X17881332Y-89484654D01*
X17874318Y-89432850D01*
X17865794Y-89390664D01*
X17855615Y-89353514D01*
X17854901Y-89351191D01*
X17813524Y-89247107D01*
X17761941Y-89187244D01*
X17690416Y-89166593D01*
X17589210Y-89180147D01*
X17545292Y-89191952D01*
X17461956Y-89222473D01*
X17394571Y-89258135D01*
X17371153Y-89277102D01*
X17339485Y-89331070D01*
X17313649Y-89418991D01*
X17292817Y-89545452D01*
X17276162Y-89715041D01*
X17266968Y-89854354D01*
X17258739Y-89990845D01*
X17249573Y-90129413D01*
X17240856Y-90249628D01*
X17236503Y-90303459D01*
X17221906Y-90472885D01*
X16989081Y-90486957D01*
X16869989Y-90493459D01*
X16719649Y-90500652D01*
X16557640Y-90507645D01*
X16408899Y-90513358D01*
X16061542Y-90525687D01*
X16050448Y-90012042D01*
X16044739Y-89805303D01*
X16036720Y-89642388D01*
X16025082Y-89516279D01*
X16008515Y-89419959D01*
X15985711Y-89346411D01*
X15955362Y-89288617D01*
X15916160Y-89239560D01*
X15904063Y-89227078D01*
X15819430Y-89170403D01*
X15719124Y-89157207D01*
X15597950Y-89187150D01*
X15556887Y-89204433D01*
X15502553Y-89230233D01*
X15459133Y-89256769D01*
X15425247Y-89289805D01*
X15399520Y-89335110D01*
X15380573Y-89398449D01*
X15367030Y-89485589D01*
X15357514Y-89602297D01*
X15350647Y-89754338D01*
X15345053Y-89947479D01*
X15341220Y-90107486D01*
X15336768Y-90298037D01*
X15332588Y-90476376D01*
X15328860Y-90634871D01*
X15325766Y-90765891D01*
X15323484Y-90861802D01*
X15322194Y-90914974D01*
X15322151Y-90916663D01*
X15309908Y-90992222D01*
X15281229Y-91027577D01*
X15241487Y-91023929D01*
X15170472Y-91001044D01*
X15081827Y-90963525D01*
X15058756Y-90952519D01*
X14911409Y-90885299D01*
X14787735Y-90842011D01*
X14669317Y-90818058D01*
X14537733Y-90808844D01*
X14480680Y-90808251D01*
X14272519Y-90823717D01*
X14083448Y-90867633D01*
X13920101Y-90936823D01*
X13789114Y-91028107D01*
X13697121Y-91138307D01*
X13668684Y-91197200D01*
X13652091Y-91272485D01*
X13643684Y-91376250D01*
X13643364Y-91489867D01*
X13651037Y-91594704D01*
X13666605Y-91672132D01*
X13671210Y-91683924D01*
X13692784Y-91717964D01*
X13726984Y-91744656D01*
X13780150Y-91765263D01*
X13858624Y-91781050D01*
X13968745Y-91793281D01*
X14116856Y-91803221D01*
X14309298Y-91812134D01*
X14315415Y-91812383D01*
X14495717Y-91820865D01*
X14630842Y-91830536D01*
X14726463Y-91842602D01*
X14788255Y-91858263D01*
X14821891Y-91878724D01*
X14833045Y-91905188D01*
X14831814Y-91921885D01*
X14807396Y-91967781D01*
X14750207Y-92004739D01*
X14656281Y-92033795D01*
X14521653Y-92055984D01*
X14342359Y-92072344D01*
X14231352Y-92078832D01*
X14019078Y-92093146D01*
X13855757Y-92112739D01*
X13739700Y-92138294D01*
X13669216Y-92170492D01*
X13642615Y-92210015D01*
X13330667Y-92210015D01*
X13377459Y-92171602D01*
X13404983Y-92138500D01*
X13462495Y-92024085D01*
X13477098Y-91896387D01*
X13451512Y-91764576D01*
X13388455Y-91637819D01*
X13290645Y-91525284D01*
X13203963Y-91460503D01*
X13157158Y-91432944D01*
X13113365Y-91412860D01*
X13063004Y-91398614D01*
X12996497Y-91388567D01*
X12904264Y-91381083D01*
X12776727Y-91374524D01*
X12675736Y-91370204D01*
X12510676Y-91362385D01*
X12390235Y-91353446D01*
X12308184Y-91341549D01*
X12258295Y-91324856D01*
X12234342Y-91301527D01*
X12230095Y-91269725D01*
X12235801Y-91240324D01*
X12257141Y-91202725D01*
X12303335Y-91173152D01*
X12380785Y-91149707D01*
X12495895Y-91130488D01*
X12655066Y-91113596D01*
X12666193Y-91112612D01*
X12787479Y-91100157D01*
X12893477Y-91085920D01*
X12971878Y-91071764D01*
X13008236Y-91060868D01*
X13050199Y-91015837D01*
X13048357Y-90956577D01*
X13003320Y-90894381D01*
X12977619Y-90875549D01*
X12943265Y-90862289D01*
X12891649Y-90853650D01*
X12814161Y-90848681D01*
X12702193Y-90846431D01*
X12564731Y-90845945D01*
X12414466Y-90846483D01*
X12304712Y-90848951D01*
X12225135Y-90854631D01*
X12165399Y-90864808D01*
X12115170Y-90880762D01*
X12064111Y-90903777D01*
X12052552Y-90909509D01*
X11963650Y-90963208D01*
X11902994Y-91028489D01*
X11861969Y-91100200D01*
X11837441Y-91153228D01*
X11819797Y-91205138D01*
X11807629Y-91266104D01*
X11799530Y-91346299D01*
X11794091Y-91455895D01*
X11789905Y-91605067D01*
X11789467Y-91624022D01*
X11788703Y-91863977D01*
X11613924Y-91863977D01*
X11634515Y-91727007D01*
X11639477Y-91556801D01*
X11625646Y-91391247D01*
X11593055Y-91246978D01*
X11566463Y-91181369D01*
X11466949Y-91037432D01*
X11332271Y-90929862D01*
X11163048Y-90858900D01*
X10959900Y-90824784D01*
X10723448Y-90827756D01*
X10666358Y-90833486D01*
X10555940Y-90845124D01*
X10455371Y-90853883D01*
X10382670Y-90858241D01*
X10370810Y-90858465D01*
X10290869Y-90858658D01*
X10281710Y-90656971D01*
X10266905Y-90513635D01*
X10234166Y-90408755D01*
X10178369Y-90331573D01*
X10099346Y-90274115D01*
X10048366Y-90250577D01*
X10014164Y-90257761D01*
X9987811Y-90280971D01*
X9975064Y-90297683D01*
X9964813Y-90323279D01*
X9956695Y-90363302D01*
X9950349Y-90423289D01*
X9945411Y-90508784D01*
X9941520Y-90625324D01*
X9938314Y-90778452D01*
X9935428Y-90973707D01*
X9933776Y-91107055D01*
X9931550Y-91392673D01*
X6314106Y-91392673D01*
X6037468Y-90946021D01*
X5749822Y-90386171D01*
X5507948Y-89804615D01*
X5311623Y-89200804D01*
X5160621Y-88574189D01*
X5054718Y-87924220D01*
X5043675Y-87833033D01*
X5042071Y-87793832D01*
X5040502Y-87704866D01*
X5038967Y-87567221D01*
X5037467Y-87381983D01*
X5036002Y-87150236D01*
X5034571Y-86873068D01*
X5033175Y-86551563D01*
X5031813Y-86186808D01*
X5030486Y-85779889D01*
X5029194Y-85331890D01*
X5027936Y-84843898D01*
X5027792Y-84781846D01*
X11866987Y-84781846D01*
X11873079Y-84892727D01*
X11888384Y-85018249D01*
X11912730Y-85171308D01*
X11924766Y-85241986D01*
X11960671Y-85454148D01*
X11988664Y-85628889D01*
X12010254Y-85778760D01*
X12026947Y-85916312D01*
X12040252Y-86054096D01*
X12051676Y-86204661D01*
X12062727Y-86380559D01*
X12063857Y-86399800D01*
X12079171Y-86617844D01*
X12098292Y-86795579D01*
X12123363Y-86943519D01*
X12156527Y-87072179D01*
X12199928Y-87192073D01*
X12246189Y-87294374D01*
X12347690Y-87460688D01*
X12483552Y-87621851D01*
X12642778Y-87768421D01*
X12814368Y-87890956D01*
X12987324Y-87980012D01*
X13082282Y-88012170D01*
X13154090Y-88025936D01*
X13261329Y-88040050D01*
X13388625Y-88052720D01*
X13501801Y-88061057D01*
X13558582Y-88062944D01*
X13663422Y-88064740D01*
X13813532Y-88066444D01*
X14006120Y-88068056D01*
X14238395Y-88069575D01*
X14507568Y-88070998D01*
X14810846Y-88072326D01*
X15145439Y-88073558D01*
X15508557Y-88074692D01*
X15897409Y-88075727D01*
X16309203Y-88076663D01*
X16741150Y-88077498D01*
X17190457Y-88078231D01*
X17654335Y-88078862D01*
X18129993Y-88079389D01*
X18614639Y-88079812D01*
X19105484Y-88080129D01*
X19599735Y-88080340D01*
X20094603Y-88080443D01*
X20587297Y-88080437D01*
X21075026Y-88080322D01*
X21554999Y-88080096D01*
X22024424Y-88079758D01*
X22480513Y-88079308D01*
X22920473Y-88078745D01*
X23341514Y-88078067D01*
X23740845Y-88077273D01*
X24115675Y-88076362D01*
X24463214Y-88075334D01*
X24780670Y-88074188D01*
X25065253Y-88072922D01*
X25314173Y-88071535D01*
X25524637Y-88070027D01*
X25693856Y-88068396D01*
X25819039Y-88066642D01*
X25873559Y-88065485D01*
X26498771Y-88049149D01*
X26649035Y-87950252D01*
X26748654Y-87876399D01*
X26861409Y-87779555D01*
X26977981Y-87669202D01*
X27089048Y-87554825D01*
X27185291Y-87445908D01*
X27257388Y-87351934D01*
X27288994Y-87299099D01*
X27322726Y-87218669D01*
X27352387Y-87123216D01*
X27379060Y-87006593D01*
X27403828Y-86862656D01*
X27427774Y-86685259D01*
X27451981Y-86468256D01*
X27472834Y-86255928D01*
X27491830Y-86063684D01*
X27513244Y-85863479D01*
X27535444Y-85669487D01*
X27556804Y-85495882D01*
X27575691Y-85356838D01*
X27577985Y-85341341D01*
X27608643Y-85135728D01*
X27632150Y-84972304D01*
X27649009Y-84842989D01*
X27659719Y-84739699D01*
X27664782Y-84654354D01*
X27664698Y-84578870D01*
X27659967Y-84505166D01*
X27651092Y-84425160D01*
X27639968Y-84341042D01*
X27615562Y-84171413D01*
X27585887Y-83981398D01*
X27552337Y-83778527D01*
X27516307Y-83570332D01*
X27479191Y-83364341D01*
X27442385Y-83168087D01*
X27407281Y-82989099D01*
X27375276Y-82834908D01*
X27347763Y-82713045D01*
X27326137Y-82631039D01*
X27319759Y-82611910D01*
X27207180Y-82381364D01*
X27054649Y-82179939D01*
X26866562Y-82012202D01*
X26647317Y-81882722D01*
X26595895Y-81860055D01*
X26435240Y-81801148D01*
X26266467Y-81756333D01*
X26079282Y-81723869D01*
X25863395Y-81702016D01*
X25608513Y-81689036D01*
X25578878Y-81688111D01*
X25372291Y-81680961D01*
X25211448Y-81671377D01*
X25091244Y-81656621D01*
X25006573Y-81633958D01*
X24952330Y-81600652D01*
X24923409Y-81553964D01*
X24914705Y-81491161D01*
X24921111Y-81409504D01*
X24931596Y-81341200D01*
X24967512Y-81163495D01*
X25016694Y-80972047D01*
X25073549Y-80786211D01*
X25132482Y-80625343D01*
X25151026Y-80581944D01*
X25173017Y-80533781D01*
X25195143Y-80493261D01*
X25221789Y-80459617D01*
X25257342Y-80432080D01*
X25306187Y-80409882D01*
X25372710Y-80392255D01*
X25461297Y-80378432D01*
X25576335Y-80367645D01*
X25722209Y-80359125D01*
X25903305Y-80352105D01*
X26124009Y-80345817D01*
X26388708Y-80339493D01*
X26557757Y-80335650D01*
X26805455Y-80329701D01*
X27008046Y-80323436D01*
X27171269Y-80315706D01*
X27300860Y-80305362D01*
X27402559Y-80291253D01*
X27482101Y-80272230D01*
X27545225Y-80247143D01*
X27597669Y-80214843D01*
X27645171Y-80174179D01*
X27693467Y-80124002D01*
X27711122Y-80104533D01*
X27810886Y-79973934D01*
X27876407Y-79835965D01*
X27913330Y-79675848D01*
X27925102Y-79544344D01*
X27918533Y-79339982D01*
X27875419Y-79164667D01*
X27793011Y-79009447D01*
X27739567Y-78940473D01*
X27704599Y-78899907D01*
X27671764Y-78865330D01*
X27636899Y-78836262D01*
X27595842Y-78812225D01*
X27544430Y-78792742D01*
X27478502Y-78777335D01*
X27393894Y-78765525D01*
X27286445Y-78756834D01*
X27151992Y-78750786D01*
X26986372Y-78746901D01*
X26785424Y-78744702D01*
X26544986Y-78743710D01*
X26260894Y-78743448D01*
X26023823Y-78743443D01*
X25700280Y-78743640D01*
X25423015Y-78744420D01*
X25187458Y-78746070D01*
X24989037Y-78748874D01*
X24823181Y-78753120D01*
X24685319Y-78759093D01*
X24570880Y-78767078D01*
X24475292Y-78777361D01*
X24393985Y-78790228D01*
X24322386Y-78805965D01*
X24255926Y-78824857D01*
X24190032Y-78847190D01*
X24154348Y-78860306D01*
X24059942Y-78906469D01*
X23956877Y-78973084D01*
X23887906Y-79028114D01*
X23817915Y-79101758D01*
X23747615Y-79198608D01*
X23675181Y-79322559D01*
X23598785Y-79477504D01*
X23516600Y-79667337D01*
X23426799Y-79895952D01*
X23327554Y-80167242D01*
X23251913Y-80383383D01*
X23145308Y-80690114D01*
X23053227Y-80949800D01*
X22975090Y-81163953D01*
X22910317Y-81334083D01*
X22858327Y-81461703D01*
X22818540Y-81548322D01*
X22790376Y-81595453D01*
X22783716Y-81602446D01*
X22743535Y-81617768D01*
X22661544Y-81631246D01*
X22536826Y-81642902D01*
X22368462Y-81652761D01*
X22155536Y-81660845D01*
X21897129Y-81667179D01*
X21592325Y-81671786D01*
X21240205Y-81674688D01*
X20839853Y-81675910D01*
X20390350Y-81675475D01*
X19981746Y-81673885D01*
X19621068Y-81671959D01*
X19307659Y-81670003D01*
X19037939Y-81667927D01*
X18808327Y-81665642D01*
X18615241Y-81663058D01*
X18455101Y-81660086D01*
X18324326Y-81656638D01*
X18219334Y-81652623D01*
X18136545Y-81647954D01*
X18072377Y-81642540D01*
X18023249Y-81636292D01*
X17985581Y-81629122D01*
X17964572Y-81623640D01*
X17874763Y-81593701D01*
X17809460Y-81558965D01*
X17764355Y-81511080D01*
X17735144Y-81441693D01*
X17717518Y-81342454D01*
X17707172Y-81205008D01*
X17703287Y-81116902D01*
X17693898Y-80924834D01*
X17680961Y-80774899D01*
X17662059Y-80658392D01*
X17634778Y-80566606D01*
X17596704Y-80490837D01*
X17545420Y-80422379D01*
X17496027Y-80369787D01*
X17388542Y-80273812D01*
X17279689Y-80204307D01*
X17158592Y-80157631D01*
X17014378Y-80130142D01*
X16836174Y-80118199D01*
X16740980Y-80116924D01*
X16607380Y-80117190D01*
X16511732Y-80120024D01*
X16441136Y-80127732D01*
X16382693Y-80142623D01*
X16323504Y-80167003D01*
X16250671Y-80203180D01*
X16246311Y-80205405D01*
X16109333Y-80288795D01*
X16000320Y-80387956D01*
X15916144Y-80509209D01*
X15853676Y-80658875D01*
X15809788Y-80843275D01*
X15781353Y-81068729D01*
X15774449Y-81158858D01*
X15763259Y-81319328D01*
X15753208Y-81435944D01*
X15742758Y-81515631D01*
X15730373Y-81565316D01*
X15714514Y-81591924D01*
X15693644Y-81602383D01*
X15675675Y-81603803D01*
X15650610Y-81598529D01*
X15629956Y-81579304D01*
X15612875Y-81541024D01*
X15598530Y-81478584D01*
X15586084Y-81386880D01*
X15574699Y-81260808D01*
X15563538Y-81095263D01*
X15551763Y-80885140D01*
X15548958Y-80831469D01*
X15536807Y-80633394D01*
X15521538Y-80478120D01*
X15500413Y-80357603D01*
X15470691Y-80263794D01*
X15429633Y-80188648D01*
X15374500Y-80124116D01*
X15302552Y-80062153D01*
X15281581Y-80046094D01*
X15098824Y-79939329D01*
X14894422Y-79874572D01*
X14676057Y-79852288D01*
X14451409Y-79872940D01*
X14228161Y-79936995D01*
X14136896Y-79976838D01*
X14057695Y-80021817D01*
X13991133Y-80076704D01*
X13935827Y-80146287D01*
X13890396Y-80235359D01*
X13853455Y-80348709D01*
X13823623Y-80491129D01*
X13799517Y-80667409D01*
X13779754Y-80882339D01*
X13762952Y-81140711D01*
X13754543Y-81301605D01*
X13737579Y-81647754D01*
X13521276Y-81678014D01*
X13229618Y-81735566D01*
X12975350Y-81822744D01*
X12752632Y-81942394D01*
X12555626Y-82097364D01*
X12458178Y-82196405D01*
X12311776Y-82392676D01*
X12195099Y-82620535D01*
X12112965Y-82867237D01*
X12070191Y-83120038D01*
X12065056Y-83236315D01*
X12057429Y-83406251D01*
X12034914Y-83621285D01*
X11997370Y-83882507D01*
X11944658Y-84191009D01*
X11938131Y-84226775D01*
X11905678Y-84408068D01*
X11883116Y-84552413D01*
X11870276Y-84672706D01*
X11866987Y-84781846D01*
X5027792Y-84781846D01*
X5026713Y-84316998D01*
X5025524Y-83752277D01*
X5024370Y-83150820D01*
X5023251Y-82513713D01*
X5022166Y-81842041D01*
X5021116Y-81136891D01*
X5020101Y-80399348D01*
X5019120Y-79630498D01*
X5018174Y-78831427D01*
X5017262Y-78003220D01*
X5016385Y-77146963D01*
X5015543Y-76263742D01*
X5014735Y-75354643D01*
X5013962Y-74420751D01*
X5013224Y-73463153D01*
X5012520Y-72482934D01*
X5011850Y-71481179D01*
X5011216Y-70458975D01*
X5010616Y-69417407D01*
X5010050Y-68357562D01*
X5009520Y-67280524D01*
X5009023Y-66187380D01*
X5008562Y-65079215D01*
X5008135Y-63957115D01*
X5007742Y-62822166D01*
X5007385Y-61675454D01*
X5007062Y-60518064D01*
X5006773Y-59351083D01*
X5006519Y-58175595D01*
X5006300Y-56992687D01*
X5006115Y-55803445D01*
X5005965Y-54608953D01*
X5005850Y-53410299D01*
X5005769Y-52208568D01*
X5005723Y-51004845D01*
X5005711Y-49800216D01*
X5005734Y-48595767D01*
X5005792Y-47392585D01*
X5005884Y-46191754D01*
X5006011Y-44994360D01*
X5006173Y-43801489D01*
X5006369Y-42614227D01*
X5006600Y-41433660D01*
X5006865Y-40260873D01*
X5007165Y-39096952D01*
X5007500Y-37942984D01*
X5007869Y-36800053D01*
X5008273Y-35669245D01*
X5008711Y-34551647D01*
X5009184Y-33448343D01*
X5009692Y-32360421D01*
X5010234Y-31288965D01*
X5010811Y-30235061D01*
X5011422Y-29199795D01*
X5012069Y-28184253D01*
X5012749Y-27189521D01*
X5013465Y-26216683D01*
X5014215Y-25266827D01*
X5014999Y-24341038D01*
X5015819Y-23440402D01*
X5016672Y-22566004D01*
X5017561Y-21718930D01*
X5018484Y-20900265D01*
X5019442Y-20111097D01*
X5020434Y-19352510D01*
X5021461Y-18625590D01*
X5022522Y-17931424D01*
X5023618Y-17271095D01*
X5024749Y-16645692D01*
X5025915Y-16056299D01*
X5027115Y-15504001D01*
X5028349Y-14989886D01*
X5029619Y-14515038D01*
X5030922Y-14080543D01*
X5032261Y-13687487D01*
X5033634Y-13336957D01*
X5035042Y-13030037D01*
X5036484Y-12767813D01*
X5037961Y-12551371D01*
X5039472Y-12381797D01*
X5041019Y-12260177D01*
X5042599Y-12187597D01*
X5043675Y-12166966D01*
X5143255Y-11514007D01*
X5287656Y-10884895D01*
X5477160Y-10278942D01*
X5712051Y-9695456D01*
X5992612Y-9133747D01*
X6319124Y-8593126D01*
X6691870Y-8072901D01*
X6751301Y-7997197D01*
X6880320Y-7843212D01*
X7038644Y-7667648D01*
X7216750Y-7480035D01*
X7405114Y-7289904D01*
X7594212Y-7106784D01*
X7774522Y-6940205D01*
X7936520Y-6799697D01*
X7997197Y-6750442D01*
X8504381Y-6378129D01*
X9027378Y-6051653D01*
X9569011Y-5769834D01*
X10132108Y-5531490D01*
X10719494Y-5335440D01*
X11333995Y-5180503D01*
X11978438Y-5065496D01*
X12052552Y-5055058D01*
X12068600Y-5053042D01*
X12087434Y-5051088D01*
X12109823Y-5049193D01*
X12136535Y-5047356D01*
X12168338Y-5045577D01*
X12206000Y-5043855D01*
X12250290Y-5042189D01*
X12301977Y-5040578D01*
X12361827Y-5039021D01*
X12430609Y-5037517D01*
X12509093Y-5036065D01*
X12598045Y-5034665D01*
X12698234Y-5033314D01*
X12810429Y-5032014D01*
X12935397Y-5030762D01*
X13073907Y-5029557D01*
X13226727Y-5028399D01*
X13394625Y-5027287D01*
X13578370Y-5026220D01*
X13778730Y-5025196D01*
X13996473Y-5024216D01*
X14232367Y-5023278D01*
X14487180Y-5022381D01*
X14761681Y-5021524D01*
X15056638Y-5020706D01*
X15372819Y-5019927D01*
X15710993Y-5019186D01*
X16071927Y-5018481D01*
X16456390Y-5017811D01*
X16865151Y-5017177D01*
X17298977Y-5016576D01*
X17758636Y-5016008D01*
X18244897Y-5015472D01*
X18758528Y-5014968D01*
X19300298Y-5014493D01*
X19870974Y-5014047D01*
X20471325Y-5013630D01*
X21102119Y-5013241D01*
X21764125Y-5012877D01*
X22458109Y-5012539D01*
X23184842Y-5012226D01*
X23945090Y-5011937D01*
X24739623Y-5011670D01*
X25569208Y-5011426D01*
X26434614Y-5011202D01*
X27336609Y-5010998D01*
X28275961Y-5010814D01*
X29253439Y-5010647D01*
X30269810Y-5010498D01*
X31325843Y-5010365D01*
X32422306Y-5010248D01*
X33559967Y-5010145D01*
X34739595Y-5010056D01*
X35961958Y-5009979D01*
X37227824Y-5009915D01*
X38537961Y-5009861D01*
X39893138Y-5009817D01*
X41294123Y-5009782D01*
X42741683Y-5009755D01*
X44236588Y-5009735D01*
X45779606Y-5009722D01*
X47371504Y-5009713D01*
X49013051Y-5009710D01*
X49961861Y-5009709D01*
X51668016Y-5009715D01*
G04 #@! TO.C,BT1*
D11*
X86600714Y-98428571D02*
X86457857Y-98476190D01*
X86410238Y-98523809D01*
X86362619Y-98619047D01*
X86362619Y-98761904D01*
X86410238Y-98857142D01*
X86457857Y-98904761D01*
X86553095Y-98952380D01*
X86934047Y-98952380D01*
X86934047Y-97952380D01*
X86600714Y-97952380D01*
X86505476Y-98000000D01*
X86457857Y-98047619D01*
X86410238Y-98142857D01*
X86410238Y-98238095D01*
X86457857Y-98333333D01*
X86505476Y-98380952D01*
X86600714Y-98428571D01*
X86934047Y-98428571D01*
X86076904Y-97952380D02*
X85505476Y-97952380D01*
X85791190Y-98952380D02*
X85791190Y-97952380D01*
X84648333Y-98952380D02*
X85219761Y-98952380D01*
X84934047Y-98952380D02*
X84934047Y-97952380D01*
X85029285Y-98095238D01*
X85124523Y-98190476D01*
X85219761Y-98238095D01*
G04 #@! TO.C,R1*
X56941666Y-81442380D02*
X57275000Y-80966190D01*
X57513095Y-81442380D02*
X57513095Y-80442380D01*
X57132142Y-80442380D01*
X57036904Y-80490000D01*
X56989285Y-80537619D01*
X56941666Y-80632857D01*
X56941666Y-80775714D01*
X56989285Y-80870952D01*
X57036904Y-80918571D01*
X57132142Y-80966190D01*
X57513095Y-80966190D01*
X55989285Y-81442380D02*
X56560714Y-81442380D01*
X56275000Y-81442380D02*
X56275000Y-80442380D01*
X56370238Y-80585238D01*
X56465476Y-80680476D01*
X56560714Y-80728095D01*
G04 #@! TO.C,R2*
X43416666Y-91452380D02*
X43750000Y-90976190D01*
X43988095Y-91452380D02*
X43988095Y-90452380D01*
X43607142Y-90452380D01*
X43511904Y-90500000D01*
X43464285Y-90547619D01*
X43416666Y-90642857D01*
X43416666Y-90785714D01*
X43464285Y-90880952D01*
X43511904Y-90928571D01*
X43607142Y-90976190D01*
X43988095Y-90976190D01*
X43035714Y-90547619D02*
X42988095Y-90500000D01*
X42892857Y-90452380D01*
X42654761Y-90452380D01*
X42559523Y-90500000D01*
X42511904Y-90547619D01*
X42464285Y-90642857D01*
X42464285Y-90738095D01*
X42511904Y-90880952D01*
X43083333Y-91452380D01*
X42464285Y-91452380D01*
G04 #@! TO.C,R3*
X43416666Y-94452380D02*
X43750000Y-93976190D01*
X43988095Y-94452380D02*
X43988095Y-93452380D01*
X43607142Y-93452380D01*
X43511904Y-93500000D01*
X43464285Y-93547619D01*
X43416666Y-93642857D01*
X43416666Y-93785714D01*
X43464285Y-93880952D01*
X43511904Y-93928571D01*
X43607142Y-93976190D01*
X43988095Y-93976190D01*
X43083333Y-93452380D02*
X42464285Y-93452380D01*
X42797619Y-93833333D01*
X42654761Y-93833333D01*
X42559523Y-93880952D01*
X42511904Y-93928571D01*
X42464285Y-94023809D01*
X42464285Y-94261904D01*
X42511904Y-94357142D01*
X42559523Y-94404761D01*
X42654761Y-94452380D01*
X42940476Y-94452380D01*
X43035714Y-94404761D01*
X43083333Y-94357142D01*
G04 #@! TO.C,R4*
X43416666Y-88202380D02*
X43750000Y-87726190D01*
X43988095Y-88202380D02*
X43988095Y-87202380D01*
X43607142Y-87202380D01*
X43511904Y-87250000D01*
X43464285Y-87297619D01*
X43416666Y-87392857D01*
X43416666Y-87535714D01*
X43464285Y-87630952D01*
X43511904Y-87678571D01*
X43607142Y-87726190D01*
X43988095Y-87726190D01*
X42559523Y-87535714D02*
X42559523Y-88202380D01*
X42797619Y-87154761D02*
X43035714Y-87869047D01*
X42416666Y-87869047D01*
G04 #@! TO.C,R5*
X43166666Y-85202380D02*
X43500000Y-84726190D01*
X43738095Y-85202380D02*
X43738095Y-84202380D01*
X43357142Y-84202380D01*
X43261904Y-84250000D01*
X43214285Y-84297619D01*
X43166666Y-84392857D01*
X43166666Y-84535714D01*
X43214285Y-84630952D01*
X43261904Y-84678571D01*
X43357142Y-84726190D01*
X43738095Y-84726190D01*
X42261904Y-84202380D02*
X42738095Y-84202380D01*
X42785714Y-84678571D01*
X42738095Y-84630952D01*
X42642857Y-84583333D01*
X42404761Y-84583333D01*
X42309523Y-84630952D01*
X42261904Y-84678571D01*
X42214285Y-84773809D01*
X42214285Y-85011904D01*
X42261904Y-85107142D01*
X42309523Y-85154761D01*
X42404761Y-85202380D01*
X42642857Y-85202380D01*
X42738095Y-85154761D01*
X42785714Y-85107142D01*
G04 #@! TO.C,SW1*
X65853333Y-94174761D02*
X65710476Y-94222380D01*
X65472380Y-94222380D01*
X65377142Y-94174761D01*
X65329523Y-94127142D01*
X65281904Y-94031904D01*
X65281904Y-93936666D01*
X65329523Y-93841428D01*
X65377142Y-93793809D01*
X65472380Y-93746190D01*
X65662857Y-93698571D01*
X65758095Y-93650952D01*
X65805714Y-93603333D01*
X65853333Y-93508095D01*
X65853333Y-93412857D01*
X65805714Y-93317619D01*
X65758095Y-93270000D01*
X65662857Y-93222380D01*
X65424761Y-93222380D01*
X65281904Y-93270000D01*
X64948571Y-93222380D02*
X64710476Y-94222380D01*
X64520000Y-93508095D01*
X64329523Y-94222380D01*
X64091428Y-93222380D01*
X63186666Y-94222380D02*
X63758095Y-94222380D01*
X63472380Y-94222380D02*
X63472380Y-93222380D01*
X63567619Y-93365238D01*
X63662857Y-93460476D01*
X63758095Y-93508095D01*
G04 #@! TO.C,U1*
X54121904Y-92452380D02*
X54121904Y-93261904D01*
X54074285Y-93357142D01*
X54026666Y-93404761D01*
X53931428Y-93452380D01*
X53740952Y-93452380D01*
X53645714Y-93404761D01*
X53598095Y-93357142D01*
X53550476Y-93261904D01*
X53550476Y-92452380D01*
X52550476Y-93452380D02*
X53121904Y-93452380D01*
X52836190Y-93452380D02*
X52836190Y-92452380D01*
X52931428Y-92595238D01*
X53026666Y-92690476D01*
X53121904Y-92738095D01*
G04 #@! TD*
M02*
