G04 #@! TF.GenerationSoftware,KiCad,Pcbnew,5.0.0-fee4fd1~66~ubuntu16.04.1*
G04 #@! TF.CreationDate,2018-08-16T23:09:48+08:00*
G04 #@! TF.ProjectId,postcard,706F7374636172642E6B696361645F70,rev?*
G04 #@! TF.SameCoordinates,Original*
G04 #@! TF.FileFunction,Copper,L2,Bot,Signal*
G04 #@! TF.FilePolarity,Positive*
%FSLAX46Y46*%
G04 Gerber Fmt 4.6, Leading zero omitted, Abs format (unit mm)*
G04 Created by KiCad (PCBNEW 5.0.0-fee4fd1~66~ubuntu16.04.1) date Thu Aug 16 23:09:48 2018*
%MOMM*%
%LPD*%
G01*
G04 APERTURE LIST*
G04 #@! TA.AperFunction,SMDPad,CuDef*
%ADD10R,2.600000X5.560000*%
G04 #@! TD*
G04 #@! TA.AperFunction,SMDPad,CuDef*
%ADD11R,8.000000X5.560000*%
G04 #@! TD*
G04 #@! TA.AperFunction,Conductor*
%ADD12C,0.100000*%
G04 #@! TD*
G04 #@! TA.AperFunction,SMDPad,CuDef*
%ADD13C,1.150000*%
G04 #@! TD*
G04 #@! TA.AperFunction,SMDPad,CuDef*
%ADD14R,2.750000X1.000000*%
G04 #@! TD*
G04 #@! TA.AperFunction,SMDPad,CuDef*
%ADD15R,1.700000X0.650000*%
G04 #@! TD*
G04 #@! TA.AperFunction,ViaPad*
%ADD16C,0.800000*%
G04 #@! TD*
G04 #@! TA.AperFunction,Conductor*
%ADD17C,0.250000*%
G04 #@! TD*
G04 APERTURE END LIST*
D10*
G04 #@! TO.P,BT1,1*
G04 #@! TO.N,VDD*
X73910000Y-89210000D03*
X97720000Y-89210000D03*
D11*
G04 #@! TO.P,BT1,2*
G04 #@! TO.N,Earth*
X85815000Y-89210000D03*
G04 #@! TD*
D12*
G04 #@! TO.N,Earth*
G04 #@! TO.C,R1*
G36*
X56099505Y-81941204D02*
X56123773Y-81944804D01*
X56147572Y-81950765D01*
X56170671Y-81959030D01*
X56192850Y-81969520D01*
X56213893Y-81982132D01*
X56233599Y-81996747D01*
X56251777Y-82013223D01*
X56268253Y-82031401D01*
X56282868Y-82051107D01*
X56295480Y-82072150D01*
X56305970Y-82094329D01*
X56314235Y-82117428D01*
X56320196Y-82141227D01*
X56323796Y-82165495D01*
X56325000Y-82189999D01*
X56325000Y-83090001D01*
X56323796Y-83114505D01*
X56320196Y-83138773D01*
X56314235Y-83162572D01*
X56305970Y-83185671D01*
X56295480Y-83207850D01*
X56282868Y-83228893D01*
X56268253Y-83248599D01*
X56251777Y-83266777D01*
X56233599Y-83283253D01*
X56213893Y-83297868D01*
X56192850Y-83310480D01*
X56170671Y-83320970D01*
X56147572Y-83329235D01*
X56123773Y-83335196D01*
X56099505Y-83338796D01*
X56075001Y-83340000D01*
X55424999Y-83340000D01*
X55400495Y-83338796D01*
X55376227Y-83335196D01*
X55352428Y-83329235D01*
X55329329Y-83320970D01*
X55307150Y-83310480D01*
X55286107Y-83297868D01*
X55266401Y-83283253D01*
X55248223Y-83266777D01*
X55231747Y-83248599D01*
X55217132Y-83228893D01*
X55204520Y-83207850D01*
X55194030Y-83185671D01*
X55185765Y-83162572D01*
X55179804Y-83138773D01*
X55176204Y-83114505D01*
X55175000Y-83090001D01*
X55175000Y-82189999D01*
X55176204Y-82165495D01*
X55179804Y-82141227D01*
X55185765Y-82117428D01*
X55194030Y-82094329D01*
X55204520Y-82072150D01*
X55217132Y-82051107D01*
X55231747Y-82031401D01*
X55248223Y-82013223D01*
X55266401Y-81996747D01*
X55286107Y-81982132D01*
X55307150Y-81969520D01*
X55329329Y-81959030D01*
X55352428Y-81950765D01*
X55376227Y-81944804D01*
X55400495Y-81941204D01*
X55424999Y-81940000D01*
X56075001Y-81940000D01*
X56099505Y-81941204D01*
X56099505Y-81941204D01*
G37*
D13*
G04 #@! TD*
G04 #@! TO.P,R1,2*
G04 #@! TO.N,Earth*
X55750000Y-82640000D03*
D12*
G04 #@! TO.N,Net-(R1-Pad1)*
G04 #@! TO.C,R1*
G36*
X58149505Y-81941204D02*
X58173773Y-81944804D01*
X58197572Y-81950765D01*
X58220671Y-81959030D01*
X58242850Y-81969520D01*
X58263893Y-81982132D01*
X58283599Y-81996747D01*
X58301777Y-82013223D01*
X58318253Y-82031401D01*
X58332868Y-82051107D01*
X58345480Y-82072150D01*
X58355970Y-82094329D01*
X58364235Y-82117428D01*
X58370196Y-82141227D01*
X58373796Y-82165495D01*
X58375000Y-82189999D01*
X58375000Y-83090001D01*
X58373796Y-83114505D01*
X58370196Y-83138773D01*
X58364235Y-83162572D01*
X58355970Y-83185671D01*
X58345480Y-83207850D01*
X58332868Y-83228893D01*
X58318253Y-83248599D01*
X58301777Y-83266777D01*
X58283599Y-83283253D01*
X58263893Y-83297868D01*
X58242850Y-83310480D01*
X58220671Y-83320970D01*
X58197572Y-83329235D01*
X58173773Y-83335196D01*
X58149505Y-83338796D01*
X58125001Y-83340000D01*
X57474999Y-83340000D01*
X57450495Y-83338796D01*
X57426227Y-83335196D01*
X57402428Y-83329235D01*
X57379329Y-83320970D01*
X57357150Y-83310480D01*
X57336107Y-83297868D01*
X57316401Y-83283253D01*
X57298223Y-83266777D01*
X57281747Y-83248599D01*
X57267132Y-83228893D01*
X57254520Y-83207850D01*
X57244030Y-83185671D01*
X57235765Y-83162572D01*
X57229804Y-83138773D01*
X57226204Y-83114505D01*
X57225000Y-83090001D01*
X57225000Y-82189999D01*
X57226204Y-82165495D01*
X57229804Y-82141227D01*
X57235765Y-82117428D01*
X57244030Y-82094329D01*
X57254520Y-82072150D01*
X57267132Y-82051107D01*
X57281747Y-82031401D01*
X57298223Y-82013223D01*
X57316401Y-81996747D01*
X57336107Y-81982132D01*
X57357150Y-81969520D01*
X57379329Y-81959030D01*
X57402428Y-81950765D01*
X57426227Y-81944804D01*
X57450495Y-81941204D01*
X57474999Y-81940000D01*
X58125001Y-81940000D01*
X58149505Y-81941204D01*
X58149505Y-81941204D01*
G37*
D13*
G04 #@! TD*
G04 #@! TO.P,R1,1*
G04 #@! TO.N,Net-(R1-Pad1)*
X57800000Y-82640000D03*
D12*
G04 #@! TO.N,Net-(D1-Pad2)*
G04 #@! TO.C,R2*
G36*
X39449505Y-90154536D02*
X39473773Y-90158136D01*
X39497572Y-90164097D01*
X39520671Y-90172362D01*
X39542850Y-90182852D01*
X39563893Y-90195464D01*
X39583599Y-90210079D01*
X39601777Y-90226555D01*
X39618253Y-90244733D01*
X39632868Y-90264439D01*
X39645480Y-90285482D01*
X39655970Y-90307661D01*
X39664235Y-90330760D01*
X39670196Y-90354559D01*
X39673796Y-90378827D01*
X39675000Y-90403331D01*
X39675000Y-91303333D01*
X39673796Y-91327837D01*
X39670196Y-91352105D01*
X39664235Y-91375904D01*
X39655970Y-91399003D01*
X39645480Y-91421182D01*
X39632868Y-91442225D01*
X39618253Y-91461931D01*
X39601777Y-91480109D01*
X39583599Y-91496585D01*
X39563893Y-91511200D01*
X39542850Y-91523812D01*
X39520671Y-91534302D01*
X39497572Y-91542567D01*
X39473773Y-91548528D01*
X39449505Y-91552128D01*
X39425001Y-91553332D01*
X38774999Y-91553332D01*
X38750495Y-91552128D01*
X38726227Y-91548528D01*
X38702428Y-91542567D01*
X38679329Y-91534302D01*
X38657150Y-91523812D01*
X38636107Y-91511200D01*
X38616401Y-91496585D01*
X38598223Y-91480109D01*
X38581747Y-91461931D01*
X38567132Y-91442225D01*
X38554520Y-91421182D01*
X38544030Y-91399003D01*
X38535765Y-91375904D01*
X38529804Y-91352105D01*
X38526204Y-91327837D01*
X38525000Y-91303333D01*
X38525000Y-90403331D01*
X38526204Y-90378827D01*
X38529804Y-90354559D01*
X38535765Y-90330760D01*
X38544030Y-90307661D01*
X38554520Y-90285482D01*
X38567132Y-90264439D01*
X38581747Y-90244733D01*
X38598223Y-90226555D01*
X38616401Y-90210079D01*
X38636107Y-90195464D01*
X38657150Y-90182852D01*
X38679329Y-90172362D01*
X38702428Y-90164097D01*
X38726227Y-90158136D01*
X38750495Y-90154536D01*
X38774999Y-90153332D01*
X39425001Y-90153332D01*
X39449505Y-90154536D01*
X39449505Y-90154536D01*
G37*
D13*
G04 #@! TD*
G04 #@! TO.P,R2,1*
G04 #@! TO.N,Net-(D1-Pad2)*
X39100000Y-90853332D03*
D12*
G04 #@! TO.N,Net-(R2-Pad2)*
G04 #@! TO.C,R2*
G36*
X41499505Y-90154536D02*
X41523773Y-90158136D01*
X41547572Y-90164097D01*
X41570671Y-90172362D01*
X41592850Y-90182852D01*
X41613893Y-90195464D01*
X41633599Y-90210079D01*
X41651777Y-90226555D01*
X41668253Y-90244733D01*
X41682868Y-90264439D01*
X41695480Y-90285482D01*
X41705970Y-90307661D01*
X41714235Y-90330760D01*
X41720196Y-90354559D01*
X41723796Y-90378827D01*
X41725000Y-90403331D01*
X41725000Y-91303333D01*
X41723796Y-91327837D01*
X41720196Y-91352105D01*
X41714235Y-91375904D01*
X41705970Y-91399003D01*
X41695480Y-91421182D01*
X41682868Y-91442225D01*
X41668253Y-91461931D01*
X41651777Y-91480109D01*
X41633599Y-91496585D01*
X41613893Y-91511200D01*
X41592850Y-91523812D01*
X41570671Y-91534302D01*
X41547572Y-91542567D01*
X41523773Y-91548528D01*
X41499505Y-91552128D01*
X41475001Y-91553332D01*
X40824999Y-91553332D01*
X40800495Y-91552128D01*
X40776227Y-91548528D01*
X40752428Y-91542567D01*
X40729329Y-91534302D01*
X40707150Y-91523812D01*
X40686107Y-91511200D01*
X40666401Y-91496585D01*
X40648223Y-91480109D01*
X40631747Y-91461931D01*
X40617132Y-91442225D01*
X40604520Y-91421182D01*
X40594030Y-91399003D01*
X40585765Y-91375904D01*
X40579804Y-91352105D01*
X40576204Y-91327837D01*
X40575000Y-91303333D01*
X40575000Y-90403331D01*
X40576204Y-90378827D01*
X40579804Y-90354559D01*
X40585765Y-90330760D01*
X40594030Y-90307661D01*
X40604520Y-90285482D01*
X40617132Y-90264439D01*
X40631747Y-90244733D01*
X40648223Y-90226555D01*
X40666401Y-90210079D01*
X40686107Y-90195464D01*
X40707150Y-90182852D01*
X40729329Y-90172362D01*
X40752428Y-90164097D01*
X40776227Y-90158136D01*
X40800495Y-90154536D01*
X40824999Y-90153332D01*
X41475001Y-90153332D01*
X41499505Y-90154536D01*
X41499505Y-90154536D01*
G37*
D13*
G04 #@! TD*
G04 #@! TO.P,R2,2*
G04 #@! TO.N,Net-(R2-Pad2)*
X41150000Y-90853332D03*
D12*
G04 #@! TO.N,Net-(R3-Pad2)*
G04 #@! TO.C,R3*
G36*
X41499505Y-93201204D02*
X41523773Y-93204804D01*
X41547572Y-93210765D01*
X41570671Y-93219030D01*
X41592850Y-93229520D01*
X41613893Y-93242132D01*
X41633599Y-93256747D01*
X41651777Y-93273223D01*
X41668253Y-93291401D01*
X41682868Y-93311107D01*
X41695480Y-93332150D01*
X41705970Y-93354329D01*
X41714235Y-93377428D01*
X41720196Y-93401227D01*
X41723796Y-93425495D01*
X41725000Y-93449999D01*
X41725000Y-94350001D01*
X41723796Y-94374505D01*
X41720196Y-94398773D01*
X41714235Y-94422572D01*
X41705970Y-94445671D01*
X41695480Y-94467850D01*
X41682868Y-94488893D01*
X41668253Y-94508599D01*
X41651777Y-94526777D01*
X41633599Y-94543253D01*
X41613893Y-94557868D01*
X41592850Y-94570480D01*
X41570671Y-94580970D01*
X41547572Y-94589235D01*
X41523773Y-94595196D01*
X41499505Y-94598796D01*
X41475001Y-94600000D01*
X40824999Y-94600000D01*
X40800495Y-94598796D01*
X40776227Y-94595196D01*
X40752428Y-94589235D01*
X40729329Y-94580970D01*
X40707150Y-94570480D01*
X40686107Y-94557868D01*
X40666401Y-94543253D01*
X40648223Y-94526777D01*
X40631747Y-94508599D01*
X40617132Y-94488893D01*
X40604520Y-94467850D01*
X40594030Y-94445671D01*
X40585765Y-94422572D01*
X40579804Y-94398773D01*
X40576204Y-94374505D01*
X40575000Y-94350001D01*
X40575000Y-93449999D01*
X40576204Y-93425495D01*
X40579804Y-93401227D01*
X40585765Y-93377428D01*
X40594030Y-93354329D01*
X40604520Y-93332150D01*
X40617132Y-93311107D01*
X40631747Y-93291401D01*
X40648223Y-93273223D01*
X40666401Y-93256747D01*
X40686107Y-93242132D01*
X40707150Y-93229520D01*
X40729329Y-93219030D01*
X40752428Y-93210765D01*
X40776227Y-93204804D01*
X40800495Y-93201204D01*
X40824999Y-93200000D01*
X41475001Y-93200000D01*
X41499505Y-93201204D01*
X41499505Y-93201204D01*
G37*
D13*
G04 #@! TD*
G04 #@! TO.P,R3,2*
G04 #@! TO.N,Net-(R3-Pad2)*
X41150000Y-93900000D03*
D12*
G04 #@! TO.N,Net-(D1-Pad1)*
G04 #@! TO.C,R3*
G36*
X39449505Y-93201204D02*
X39473773Y-93204804D01*
X39497572Y-93210765D01*
X39520671Y-93219030D01*
X39542850Y-93229520D01*
X39563893Y-93242132D01*
X39583599Y-93256747D01*
X39601777Y-93273223D01*
X39618253Y-93291401D01*
X39632868Y-93311107D01*
X39645480Y-93332150D01*
X39655970Y-93354329D01*
X39664235Y-93377428D01*
X39670196Y-93401227D01*
X39673796Y-93425495D01*
X39675000Y-93449999D01*
X39675000Y-94350001D01*
X39673796Y-94374505D01*
X39670196Y-94398773D01*
X39664235Y-94422572D01*
X39655970Y-94445671D01*
X39645480Y-94467850D01*
X39632868Y-94488893D01*
X39618253Y-94508599D01*
X39601777Y-94526777D01*
X39583599Y-94543253D01*
X39563893Y-94557868D01*
X39542850Y-94570480D01*
X39520671Y-94580970D01*
X39497572Y-94589235D01*
X39473773Y-94595196D01*
X39449505Y-94598796D01*
X39425001Y-94600000D01*
X38774999Y-94600000D01*
X38750495Y-94598796D01*
X38726227Y-94595196D01*
X38702428Y-94589235D01*
X38679329Y-94580970D01*
X38657150Y-94570480D01*
X38636107Y-94557868D01*
X38616401Y-94543253D01*
X38598223Y-94526777D01*
X38581747Y-94508599D01*
X38567132Y-94488893D01*
X38554520Y-94467850D01*
X38544030Y-94445671D01*
X38535765Y-94422572D01*
X38529804Y-94398773D01*
X38526204Y-94374505D01*
X38525000Y-94350001D01*
X38525000Y-93449999D01*
X38526204Y-93425495D01*
X38529804Y-93401227D01*
X38535765Y-93377428D01*
X38544030Y-93354329D01*
X38554520Y-93332150D01*
X38567132Y-93311107D01*
X38581747Y-93291401D01*
X38598223Y-93273223D01*
X38616401Y-93256747D01*
X38636107Y-93242132D01*
X38657150Y-93229520D01*
X38679329Y-93219030D01*
X38702428Y-93210765D01*
X38726227Y-93204804D01*
X38750495Y-93201204D01*
X38774999Y-93200000D01*
X39425001Y-93200000D01*
X39449505Y-93201204D01*
X39449505Y-93201204D01*
G37*
D13*
G04 #@! TD*
G04 #@! TO.P,R3,1*
G04 #@! TO.N,Net-(D1-Pad1)*
X39100000Y-93900000D03*
D12*
G04 #@! TO.N,Net-(D2-Pad1)*
G04 #@! TO.C,R4*
G36*
X39449505Y-87107870D02*
X39473773Y-87111470D01*
X39497572Y-87117431D01*
X39520671Y-87125696D01*
X39542850Y-87136186D01*
X39563893Y-87148798D01*
X39583599Y-87163413D01*
X39601777Y-87179889D01*
X39618253Y-87198067D01*
X39632868Y-87217773D01*
X39645480Y-87238816D01*
X39655970Y-87260995D01*
X39664235Y-87284094D01*
X39670196Y-87307893D01*
X39673796Y-87332161D01*
X39675000Y-87356665D01*
X39675000Y-88256667D01*
X39673796Y-88281171D01*
X39670196Y-88305439D01*
X39664235Y-88329238D01*
X39655970Y-88352337D01*
X39645480Y-88374516D01*
X39632868Y-88395559D01*
X39618253Y-88415265D01*
X39601777Y-88433443D01*
X39583599Y-88449919D01*
X39563893Y-88464534D01*
X39542850Y-88477146D01*
X39520671Y-88487636D01*
X39497572Y-88495901D01*
X39473773Y-88501862D01*
X39449505Y-88505462D01*
X39425001Y-88506666D01*
X38774999Y-88506666D01*
X38750495Y-88505462D01*
X38726227Y-88501862D01*
X38702428Y-88495901D01*
X38679329Y-88487636D01*
X38657150Y-88477146D01*
X38636107Y-88464534D01*
X38616401Y-88449919D01*
X38598223Y-88433443D01*
X38581747Y-88415265D01*
X38567132Y-88395559D01*
X38554520Y-88374516D01*
X38544030Y-88352337D01*
X38535765Y-88329238D01*
X38529804Y-88305439D01*
X38526204Y-88281171D01*
X38525000Y-88256667D01*
X38525000Y-87356665D01*
X38526204Y-87332161D01*
X38529804Y-87307893D01*
X38535765Y-87284094D01*
X38544030Y-87260995D01*
X38554520Y-87238816D01*
X38567132Y-87217773D01*
X38581747Y-87198067D01*
X38598223Y-87179889D01*
X38616401Y-87163413D01*
X38636107Y-87148798D01*
X38657150Y-87136186D01*
X38679329Y-87125696D01*
X38702428Y-87117431D01*
X38726227Y-87111470D01*
X38750495Y-87107870D01*
X38774999Y-87106666D01*
X39425001Y-87106666D01*
X39449505Y-87107870D01*
X39449505Y-87107870D01*
G37*
D13*
G04 #@! TD*
G04 #@! TO.P,R4,1*
G04 #@! TO.N,Net-(D2-Pad1)*
X39100000Y-87806666D03*
D12*
G04 #@! TO.N,Net-(R4-Pad2)*
G04 #@! TO.C,R4*
G36*
X41499505Y-87107870D02*
X41523773Y-87111470D01*
X41547572Y-87117431D01*
X41570671Y-87125696D01*
X41592850Y-87136186D01*
X41613893Y-87148798D01*
X41633599Y-87163413D01*
X41651777Y-87179889D01*
X41668253Y-87198067D01*
X41682868Y-87217773D01*
X41695480Y-87238816D01*
X41705970Y-87260995D01*
X41714235Y-87284094D01*
X41720196Y-87307893D01*
X41723796Y-87332161D01*
X41725000Y-87356665D01*
X41725000Y-88256667D01*
X41723796Y-88281171D01*
X41720196Y-88305439D01*
X41714235Y-88329238D01*
X41705970Y-88352337D01*
X41695480Y-88374516D01*
X41682868Y-88395559D01*
X41668253Y-88415265D01*
X41651777Y-88433443D01*
X41633599Y-88449919D01*
X41613893Y-88464534D01*
X41592850Y-88477146D01*
X41570671Y-88487636D01*
X41547572Y-88495901D01*
X41523773Y-88501862D01*
X41499505Y-88505462D01*
X41475001Y-88506666D01*
X40824999Y-88506666D01*
X40800495Y-88505462D01*
X40776227Y-88501862D01*
X40752428Y-88495901D01*
X40729329Y-88487636D01*
X40707150Y-88477146D01*
X40686107Y-88464534D01*
X40666401Y-88449919D01*
X40648223Y-88433443D01*
X40631747Y-88415265D01*
X40617132Y-88395559D01*
X40604520Y-88374516D01*
X40594030Y-88352337D01*
X40585765Y-88329238D01*
X40579804Y-88305439D01*
X40576204Y-88281171D01*
X40575000Y-88256667D01*
X40575000Y-87356665D01*
X40576204Y-87332161D01*
X40579804Y-87307893D01*
X40585765Y-87284094D01*
X40594030Y-87260995D01*
X40604520Y-87238816D01*
X40617132Y-87217773D01*
X40631747Y-87198067D01*
X40648223Y-87179889D01*
X40666401Y-87163413D01*
X40686107Y-87148798D01*
X40707150Y-87136186D01*
X40729329Y-87125696D01*
X40752428Y-87117431D01*
X40776227Y-87111470D01*
X40800495Y-87107870D01*
X40824999Y-87106666D01*
X41475001Y-87106666D01*
X41499505Y-87107870D01*
X41499505Y-87107870D01*
G37*
D13*
G04 #@! TD*
G04 #@! TO.P,R4,2*
G04 #@! TO.N,Net-(R4-Pad2)*
X41150000Y-87806666D03*
D12*
G04 #@! TO.N,Net-(R5-Pad2)*
G04 #@! TO.C,R5*
G36*
X41499505Y-84061204D02*
X41523773Y-84064804D01*
X41547572Y-84070765D01*
X41570671Y-84079030D01*
X41592850Y-84089520D01*
X41613893Y-84102132D01*
X41633599Y-84116747D01*
X41651777Y-84133223D01*
X41668253Y-84151401D01*
X41682868Y-84171107D01*
X41695480Y-84192150D01*
X41705970Y-84214329D01*
X41714235Y-84237428D01*
X41720196Y-84261227D01*
X41723796Y-84285495D01*
X41725000Y-84309999D01*
X41725000Y-85210001D01*
X41723796Y-85234505D01*
X41720196Y-85258773D01*
X41714235Y-85282572D01*
X41705970Y-85305671D01*
X41695480Y-85327850D01*
X41682868Y-85348893D01*
X41668253Y-85368599D01*
X41651777Y-85386777D01*
X41633599Y-85403253D01*
X41613893Y-85417868D01*
X41592850Y-85430480D01*
X41570671Y-85440970D01*
X41547572Y-85449235D01*
X41523773Y-85455196D01*
X41499505Y-85458796D01*
X41475001Y-85460000D01*
X40824999Y-85460000D01*
X40800495Y-85458796D01*
X40776227Y-85455196D01*
X40752428Y-85449235D01*
X40729329Y-85440970D01*
X40707150Y-85430480D01*
X40686107Y-85417868D01*
X40666401Y-85403253D01*
X40648223Y-85386777D01*
X40631747Y-85368599D01*
X40617132Y-85348893D01*
X40604520Y-85327850D01*
X40594030Y-85305671D01*
X40585765Y-85282572D01*
X40579804Y-85258773D01*
X40576204Y-85234505D01*
X40575000Y-85210001D01*
X40575000Y-84309999D01*
X40576204Y-84285495D01*
X40579804Y-84261227D01*
X40585765Y-84237428D01*
X40594030Y-84214329D01*
X40604520Y-84192150D01*
X40617132Y-84171107D01*
X40631747Y-84151401D01*
X40648223Y-84133223D01*
X40666401Y-84116747D01*
X40686107Y-84102132D01*
X40707150Y-84089520D01*
X40729329Y-84079030D01*
X40752428Y-84070765D01*
X40776227Y-84064804D01*
X40800495Y-84061204D01*
X40824999Y-84060000D01*
X41475001Y-84060000D01*
X41499505Y-84061204D01*
X41499505Y-84061204D01*
G37*
D13*
G04 #@! TD*
G04 #@! TO.P,R5,2*
G04 #@! TO.N,Net-(R5-Pad2)*
X41150000Y-84760000D03*
D12*
G04 #@! TO.N,Net-(D10-Pad2)*
G04 #@! TO.C,R5*
G36*
X39449505Y-84061204D02*
X39473773Y-84064804D01*
X39497572Y-84070765D01*
X39520671Y-84079030D01*
X39542850Y-84089520D01*
X39563893Y-84102132D01*
X39583599Y-84116747D01*
X39601777Y-84133223D01*
X39618253Y-84151401D01*
X39632868Y-84171107D01*
X39645480Y-84192150D01*
X39655970Y-84214329D01*
X39664235Y-84237428D01*
X39670196Y-84261227D01*
X39673796Y-84285495D01*
X39675000Y-84309999D01*
X39675000Y-85210001D01*
X39673796Y-85234505D01*
X39670196Y-85258773D01*
X39664235Y-85282572D01*
X39655970Y-85305671D01*
X39645480Y-85327850D01*
X39632868Y-85348893D01*
X39618253Y-85368599D01*
X39601777Y-85386777D01*
X39583599Y-85403253D01*
X39563893Y-85417868D01*
X39542850Y-85430480D01*
X39520671Y-85440970D01*
X39497572Y-85449235D01*
X39473773Y-85455196D01*
X39449505Y-85458796D01*
X39425001Y-85460000D01*
X38774999Y-85460000D01*
X38750495Y-85458796D01*
X38726227Y-85455196D01*
X38702428Y-85449235D01*
X38679329Y-85440970D01*
X38657150Y-85430480D01*
X38636107Y-85417868D01*
X38616401Y-85403253D01*
X38598223Y-85386777D01*
X38581747Y-85368599D01*
X38567132Y-85348893D01*
X38554520Y-85327850D01*
X38544030Y-85305671D01*
X38535765Y-85282572D01*
X38529804Y-85258773D01*
X38526204Y-85234505D01*
X38525000Y-85210001D01*
X38525000Y-84309999D01*
X38526204Y-84285495D01*
X38529804Y-84261227D01*
X38535765Y-84237428D01*
X38544030Y-84214329D01*
X38554520Y-84192150D01*
X38567132Y-84171107D01*
X38581747Y-84151401D01*
X38598223Y-84133223D01*
X38616401Y-84116747D01*
X38636107Y-84102132D01*
X38657150Y-84089520D01*
X38679329Y-84079030D01*
X38702428Y-84070765D01*
X38726227Y-84064804D01*
X38750495Y-84061204D01*
X38774999Y-84060000D01*
X39425001Y-84060000D01*
X39449505Y-84061204D01*
X39449505Y-84061204D01*
G37*
D13*
G04 #@! TD*
G04 #@! TO.P,R5,1*
G04 #@! TO.N,Net-(D10-Pad2)*
X39100000Y-84760000D03*
D14*
G04 #@! TO.P,SW1,2*
G04 #@! TO.N,Net-(R1-Pad1)*
X61645000Y-87270000D03*
X67395000Y-87270000D03*
G04 #@! TO.P,SW1,1*
G04 #@! TO.N,VDD*
X67395000Y-91270000D03*
X61645000Y-91270000D03*
G04 #@! TD*
D15*
G04 #@! TO.P,U1,8*
G04 #@! TO.N,VDD*
X57010000Y-91115000D03*
G04 #@! TO.P,U1,7*
G04 #@! TO.N,Net-(R3-Pad2)*
X57010000Y-89845000D03*
G04 #@! TO.P,U1,6*
G04 #@! TO.N,Net-(R2-Pad2)*
X57010000Y-88575000D03*
G04 #@! TO.P,U1,5*
G04 #@! TO.N,Net-(R1-Pad1)*
X57010000Y-87305000D03*
G04 #@! TO.P,U1,4*
G04 #@! TO.N,Earth*
X49710000Y-87305000D03*
G04 #@! TO.P,U1,3*
G04 #@! TO.N,Net-(R5-Pad2)*
X49710000Y-88575000D03*
G04 #@! TO.P,U1,2*
G04 #@! TO.N,Net-(R4-Pad2)*
X49710000Y-89845000D03*
G04 #@! TO.P,U1,1*
G04 #@! TO.N,Net-(U1-Pad1)*
X49710000Y-91115000D03*
G04 #@! TD*
D16*
G04 #@! TO.N,Net-(D1-Pad1)*
X75900000Y-63750000D03*
G04 #@! TO.N,Net-(D1-Pad2)*
X73750000Y-55350000D03*
X75750000Y-24650000D03*
X73750000Y-73750000D03*
G04 #@! TO.N,Net-(D2-Pad1)*
X73650000Y-44350000D03*
G04 #@! TO.N,Net-(D10-Pad2)*
X73700000Y-53400000D03*
G04 #@! TD*
D17*
G04 #@! TO.N,Earth*
X73969990Y-81614990D02*
X81565000Y-89210000D01*
X81565000Y-89210000D02*
X85815000Y-89210000D01*
X56775010Y-81614990D02*
X73969990Y-81614990D01*
X55750000Y-82640000D02*
X56775010Y-81614990D01*
X51085000Y-87305000D02*
X55750000Y-82640000D01*
X49710000Y-87305000D02*
X51085000Y-87305000D01*
G04 #@! TO.N,VDD*
X71850000Y-91270000D02*
X73910000Y-89210000D01*
X67395000Y-91270000D02*
X71850000Y-91270000D01*
X65770000Y-91270000D02*
X61645000Y-91270000D01*
X67395000Y-91270000D02*
X65770000Y-91270000D01*
X57165000Y-91270000D02*
X57010000Y-91115000D01*
X61645000Y-91270000D02*
X57165000Y-91270000D01*
G04 #@! TO.N,Net-(D1-Pad1)*
X60571810Y-63750000D02*
X75900000Y-63750000D01*
X40249990Y-88244866D02*
X40249990Y-84071820D01*
X39663180Y-88831676D02*
X40249990Y-88244866D01*
X38199990Y-92999990D02*
X38199990Y-90165152D01*
X40249990Y-84071820D02*
X60571810Y-63750000D01*
X39533466Y-88831676D02*
X39663180Y-88831676D01*
X39100000Y-93900000D02*
X38199990Y-92999990D01*
X38199990Y-90165152D02*
X39533466Y-88831676D01*
G04 #@! TO.N,Net-(D1-Pad2)*
X75750000Y-53350000D02*
X75750000Y-24650000D01*
X73750000Y-55350000D02*
X75750000Y-53350000D01*
X77720002Y-73750000D02*
X73750000Y-73750000D01*
X90140001Y-86169999D02*
X77720002Y-73750000D01*
X39100000Y-90853332D02*
X40125010Y-91878342D01*
X87464992Y-94925010D02*
X90140001Y-92250001D01*
X40125010Y-91878342D02*
X40125010Y-94463200D01*
X90140001Y-92250001D02*
X90140001Y-86169999D01*
X40125010Y-94463200D02*
X40586820Y-94925010D01*
X40586820Y-94925010D02*
X87464992Y-94925010D01*
G04 #@! TO.N,Net-(D2-Pad1)*
X38199990Y-79800010D02*
X73650000Y-44350000D01*
X38199990Y-86906656D02*
X38199990Y-79800010D01*
X39100000Y-87806666D02*
X38199990Y-86906656D01*
G04 #@! TO.N,Net-(D10-Pad2)*
X39100000Y-84760000D02*
X39100000Y-83960000D01*
X39100000Y-83960000D02*
X69660000Y-53400000D01*
X73134315Y-53400000D02*
X73700000Y-53400000D01*
X69660000Y-53400000D02*
X73134315Y-53400000D01*
G04 #@! TO.N,Net-(R1-Pad1)*
X65770000Y-87270000D02*
X61645000Y-87270000D01*
X67395000Y-87270000D02*
X65770000Y-87270000D01*
X57045000Y-87270000D02*
X57010000Y-87305000D01*
X61645000Y-87270000D02*
X57045000Y-87270000D01*
X57800000Y-87040000D02*
X57800000Y-83440000D01*
X57535000Y-87305000D02*
X57800000Y-87040000D01*
X57800000Y-83440000D02*
X57800000Y-82640000D01*
X57010000Y-87305000D02*
X57535000Y-87305000D01*
G04 #@! TO.N,Net-(R2-Pad2)*
X55910000Y-88575000D02*
X51475000Y-93010000D01*
X57010000Y-88575000D02*
X55910000Y-88575000D01*
X43306668Y-93010000D02*
X41150000Y-90853332D01*
X51475000Y-93010000D02*
X43306668Y-93010000D01*
G04 #@! TO.N,Net-(R3-Pad2)*
X52430000Y-93900000D02*
X41825000Y-93900000D01*
X41825000Y-93900000D02*
X41150000Y-93900000D01*
X56485000Y-89845000D02*
X52430000Y-93900000D01*
X57010000Y-89845000D02*
X56485000Y-89845000D01*
G04 #@! TO.N,Net-(R4-Pad2)*
X43188334Y-89845000D02*
X41150000Y-87806666D01*
X49710000Y-89845000D02*
X43188334Y-89845000D01*
G04 #@! TO.N,Net-(R5-Pad2)*
X44965000Y-88575000D02*
X41150000Y-84760000D01*
X49710000Y-88575000D02*
X44965000Y-88575000D01*
G04 #@! TD*
M02*
